<svg xmlns="http://www.w3.org/2000/svg" width="55" height="54" viewBox="0 0 55 54">
    <g fill="none" fill-rule="evenodd">
        <path fill="#999" fill-rule="nonzero" d="M51.434 24.06H30.522V3c0-1.68-1.33-3-3.022-3H3.445C1.753 0 .423 1.32.423 3v48c0 1.68 1.33 3 3.022 3H27.5l23.874-.06c1.692 0 3.022-1.32 3.022-3V27.06c.06-1.62-1.33-3-2.962-3zM15.473 52.2c-.847 0-1.572-.66-1.572-1.56s.665-1.56 1.572-1.56c.846 0 1.571.66 1.571 1.56s-.725 1.56-1.571 1.56zm11.483-4.44H4.049c-.664 0-1.208-.54-1.208-1.2V5.4c0-.66.544-1.2 1.208-1.2h22.907c.665 0 1.209.54 1.209 1.2v41.22c0 .6-.544 1.14-1.209 1.14zm23.27 2.64c0 .66-.545 1.2-1.21 1.2H30.522l-.06.06c.06-.24.06-.42.06-.66V26.46h18.494c.665 0 1.21.54 1.21 1.2V50.4z"/>
        <path fill="#999" fill-rule="nonzero" d="M30.522 51V3c0-1.68-1.33-3-3.022-3H3.445C1.753 0 .423 1.32.423 3v48c0 1.68 1.33 3 3.022 3H27.5c1.692 0 3.022-1.32 3.022-3zm-15.05 1.2c-.846 0-1.57-.66-1.57-1.56s.664-1.56 1.57-1.56c.847 0 1.572.66 1.572 1.56s-.725 1.56-1.571 1.56zm12.693-5.58c0 .66-.544 1.2-1.209 1.2H4.049c-.664 0-1.208-.54-1.208-1.2V5.4c0-.66.544-1.2 1.208-1.2h22.907c.665 0 1.209.54 1.209 1.2v41.22z"/>
        <path fill="#999" fill-rule="nonzero" d="M51.434 24.06H30.522v2.4h18.494c.665 0 1.21.54 1.21 1.2V50.4c0 .66-.545 1.2-1.21 1.2H30.522L27.5 54l23.874-.06c1.692 0 3.022-1.32 3.022-3V27.06c.06-1.62-1.33-3-2.962-3z"/>
        <path fill="#999" fill-rule="nonzero" d="M30.522 51V3c0-1.68-1.33-3-3.022-3H3.445C1.753 0 .423 1.32.423 3v48c0 1.68 1.33 3 3.022 3H27.5c1.692 0 3.022-1.32 3.022-3zm-15.05 1.2c-.846 0-1.57-.66-1.57-1.56s.664-1.56 1.57-1.56c.847 0 1.572.66 1.572 1.56s-.725 1.56-1.571 1.56zm12.693-5.58c0 .66-.544 1.2-1.209 1.2H4.049c-.664 0-1.208-.54-1.208-1.2V5.4c0-.66.544-1.2 1.208-1.2h22.907c.665 0 1.209.54 1.209 1.2v41.22z"/>
        <path fill="#999" fill-rule="nonzero" d="M51.434 24.06H30.522v2.4h18.494c.665 0 1.21.54 1.21 1.2V50.4c0 .66-.545 1.2-1.21 1.2H30.522L27.5 54l23.874-.06c1.692 0 3.022-1.32 3.022-3V27.06c.06-1.62-1.33-3-2.962-3z"/>
        <path stroke="#999" stroke-width=".56" d="M51.192 18.36c-.967-8.52-8.28-15.18-17.165-15.18"/>
        <path fill="#999" fill-rule="nonzero" d="M52.582 17.88l-1.269 2.52-1.571-2.34zM30.522 51V3c0-1.68-1.33-3-3.022-3H3.445C1.753 0 .423 1.32.423 3v48c0 1.68 1.33 3 3.022 3H27.5c1.692 0 3.022-1.32 3.022-3zm-15.05 1.2c-.846 0-1.57-.66-1.57-1.56s.664-1.56 1.57-1.56c.847 0 1.572.66 1.572 1.56s-.725 1.56-1.571 1.56zm12.693-5.58c0 .66-.544 1.2-1.209 1.2H4.049c-.664 0-1.208-.54-1.208-1.2V5.4c0-.66.544-1.2 1.208-1.2h22.907c.665 0 1.209.54 1.209 1.2v41.22z"/>
        <path fill="#999" fill-rule="nonzero" d="M51.434 24.06H30.522v2.4h18.494c.665 0 1.21.54 1.21 1.2V50.4c0 .66-.545 1.2-1.21 1.2H30.522L27.5 54l23.874-.06c1.692 0 3.022-1.32 3.022-3V27.06c.06-1.62-1.33-3-2.962-3z"/>
        <path fill="#999" fill-rule="nonzero" d="M30.522 51V3c0-1.68-1.33-3-3.022-3H3.445C1.753 0 .423 1.32.423 3v48c0 1.68 1.33 3 3.022 3H27.5c1.692 0 3.022-1.32 3.022-3zm-15.05 1.2c-.846 0-1.57-.66-1.57-1.56s.664-1.56 1.57-1.56c.847 0 1.572.66 1.572 1.56s-.725 1.56-1.571 1.56zm12.693-5.58c0 .66-.544 1.2-1.209 1.2H4.049c-.664 0-1.208-.54-1.208-1.2V5.4c0-.66.544-1.2 1.208-1.2h22.907c.665 0 1.209.54 1.209 1.2v41.22z"/>
        <path fill="#999" fill-rule="nonzero" d="M51.434 24.06H30.522v2.4h18.494c.665 0 1.21.54 1.21 1.2V50.4c0 .66-.545 1.2-1.21 1.2H30.522L27.5 54l23.874-.06c1.692 0 3.022-1.32 3.022-3V27.06c.06-1.62-1.33-3-2.962-3z"/>
        <path fill="#999" fill-rule="nonzero" d="M30.522 51V3c0-1.68-1.33-3-3.022-3H3.445C1.753 0 .423 1.32.423 3v48c0 1.68 1.33 3 3.022 3H27.5c1.692 0 3.022-1.32 3.022-3zm-15.05 1.2c-.846 0-1.57-.66-1.57-1.56s.664-1.56 1.57-1.56c.847 0 1.572.66 1.572 1.56s-.725 1.56-1.571 1.56zm12.693-5.58c0 .66-.544 1.2-1.209 1.2H4.049c-.664 0-1.208-.54-1.208-1.2V5.4c0-.66.544-1.2 1.208-1.2h22.907c.665 0 1.209.54 1.209 1.2v41.22z"/>
        <path fill="#999" fill-rule="nonzero" d="M51.434 24.06H30.522v2.4h18.494c.665 0 1.21.54 1.21 1.2V50.4c0 .66-.545 1.2-1.21 1.2H30.522L27.5 54l23.874-.06c1.692 0 3.022-1.32 3.022-3V27.06c.06-1.62-1.33-3-2.962-3z"/>
        <path fill="#999" fill-rule="nonzero" d="M30.522 51V3c0-1.68-1.33-3-3.022-3H3.445C1.753 0 .423 1.32.423 3v48c0 1.68 1.33 3 3.022 3H27.5c1.692 0 3.022-1.32 3.022-3zm-15.05 1.2c-.846 0-1.57-.66-1.57-1.56s.664-1.56 1.57-1.56c.847 0 1.572.66 1.572 1.56s-.725 1.56-1.571 1.56zm12.693-5.58c0 .66-.544 1.2-1.209 1.2H4.049c-.664 0-1.208-.54-1.208-1.2V5.4c0-.66.544-1.2 1.208-1.2h22.907c.665 0 1.209.54 1.209 1.2v41.22z"/>
        <path fill="#999" fill-rule="nonzero" d="M51.434 24.06H30.522v2.4h18.494c.665 0 1.21.54 1.21 1.2V50.4c0 .66-.545 1.2-1.21 1.2H30.522L27.5 54l23.874-.06c1.692 0 3.022-1.32 3.022-3V27.06c.06-1.62-1.33-3-2.962-3z"/>
    </g>
</svg>
