<svg xmlns="http://www.w3.org/2000/svg" xmlns:xlink="http://www.w3.org/1999/xlink" viewBox="0 0 595.3 174.4"><defs><style>.cls-1{fill:none;}.cls-2{isolation:isolate;}.cls-3{clip-path:url(#clip-path);}.cls-4{clip-path:url(#clip-path-2);}.cls-5{fill:url(#linear-gradient);}.cls-6{fill:url(#linear-gradient-2);}.cls-7{fill:url(#linear-gradient-3);}.cls-8{fill:url(#linear-gradient-4);}.cls-9{fill:url(#linear-gradient-5);}.cls-10{fill:url(#linear-gradient-6);}.cls-11{fill:url(#linear-gradient-7);}.cls-12{fill:url(#linear-gradient-8);}.cls-13{fill:url(#linear-gradient-9);}.cls-14{fill:url(#linear-gradient-10);}.cls-15{fill:url(#linear-gradient-11);}.cls-16{fill:url(#linear-gradient-12);}.cls-17{fill:url(#linear-gradient-13);}.cls-18{fill:url(#linear-gradient-14);}.cls-19{fill:url(#linear-gradient-15);}.cls-20{fill:url(#linear-gradient-16);}.cls-21{fill:url(#linear-gradient-17);}.cls-22{fill:url(#linear-gradient-18);}.cls-23{fill:url(#linear-gradient-19);}.cls-24{fill:url(#linear-gradient-20);}.cls-25{fill:url(#linear-gradient-21);}.cls-26{fill:url(#linear-gradient-22);}.cls-27{fill:url(#linear-gradient-23);}.cls-28{fill:url(#linear-gradient-24);}.cls-29{fill:url(#linear-gradient-25);}.cls-30{fill:url(#linear-gradient-26);}.cls-31{fill:url(#linear-gradient-27);}.cls-32{fill:url(#linear-gradient-28);}.cls-33{fill:url(#linear-gradient-29);}.cls-34{fill:url(#linear-gradient-30);}.cls-35{fill:url(#linear-gradient-31);}.cls-36{fill:url(#linear-gradient-32);}.cls-37{fill:url(#linear-gradient-33);}.cls-38{fill:url(#linear-gradient-34);}.cls-39{fill:url(#linear-gradient-35);}.cls-40{fill:url(#linear-gradient-36);}.cls-41{fill:url(#linear-gradient-37);}.cls-42{fill:url(#linear-gradient-38);}.cls-43{fill:url(#linear-gradient-39);}.cls-44{fill:url(#linear-gradient-40);}.cls-45{fill:url(#linear-gradient-41);}.cls-46{fill:url(#linear-gradient-42);}.cls-47{fill:url(#linear-gradient-43);}.cls-48{fill:url(#linear-gradient-44);}.cls-49{fill:url(#linear-gradient-45);}.cls-50{fill:url(#linear-gradient-46);}.cls-51{fill:url(#linear-gradient-47);}.cls-52{fill:url(#linear-gradient-48);}.cls-53{fill:url(#linear-gradient-49);}.cls-54{fill:url(#linear-gradient-50);}.cls-55{fill:#548703;mix-blend-mode:hard-light;}</style><clipPath id="clip-path"><rect class="cls-1" y="-0.8" width="595.3" height="175.22"/></clipPath><clipPath id="clip-path-2"><rect class="cls-1" y="-667.5" width="595.3" height="841.89"/></clipPath><linearGradient id="linear-gradient" x1="309.59" y1="173.25" x2="310.17" y2="172.67" gradientTransform="matrix(0, 164, 162, 0, -27664.92, -50753.91)" gradientUnits="userSpaceOnUse"><stop offset="0" stop-color="#75b743"/><stop offset="1" stop-color="#5fa544"/></linearGradient><linearGradient id="linear-gradient-2" x1="312.28" y1="171.51" x2="312.85" y2="170.94" gradientTransform="matrix(0, 249, 113, 0, -18757.46, -77724.93)" gradientUnits="userSpaceOnUse"><stop offset="0" stop-color="#2e6130"/><stop offset="1" stop-color="#284e25"/></linearGradient><linearGradient id="linear-gradient-3" x1="309.01" y1="171.4" x2="309.58" y2="170.83" gradientTransform="matrix(0, 157, 113, 0, -18757.46, -48431.91)" gradientUnits="userSpaceOnUse"><stop offset="0" stop-color="#295026"/><stop offset="1" stop-color="#22401d"/></linearGradient><linearGradient id="linear-gradient-4" x1="315.04" y1="168.86" x2="315.61" y2="168.29" gradientTransform="matrix(0, 506, 63, 0, -10014.45, -159700.11)" gradientUnits="userSpaceOnUse"><stop offset="0" stop-color="#5aa244"/><stop offset="1" stop-color="#539542"/></linearGradient><linearGradient id="linear-gradient-5" x1="311.39" y1="174.31" x2="311.96" y2="173.74" gradientTransform="matrix(0, 201, 209, 0, -36197.42, -62634.93)" gradientUnits="userSpaceOnUse"><stop offset="0" stop-color="#8dc63f"/><stop offset="1" stop-color="#65b946"/></linearGradient><linearGradient id="linear-gradient-6" x1="310.04" y1="174.19" x2="310.61" y2="173.62" gradientTransform="matrix(0, 171, 211, 0, -36546.42, -53029.91)" gradientUnits="userSpaceOnUse"><stop offset="0" stop-color="#59b747"/><stop offset="1" stop-color="#51b348"/></linearGradient><linearGradient id="linear-gradient-7" x1="313" y1="173.01" x2="313.57" y2="172.43" gradientTransform="matrix(0, 263, 209, 0, -35532.42, -82425.94)" gradientUnits="userSpaceOnUse"><stop offset="0" stop-color="#4e9542"/><stop offset="1" stop-color="#48873e"/></linearGradient><linearGradient id="linear-gradient-8" x1="312.72" y1="172.58" x2="313.3" y2="172" gradientTransform="matrix(0, 260, 132, 0, -22304.9, -81436.94)" gradientUnits="userSpaceOnUse"><stop offset="0" stop-color="#82bc41"/><stop offset="1" stop-color="#74ae43"/></linearGradient><linearGradient id="linear-gradient-9" x1="310.5" y1="172.83" x2="311.07" y2="172.25" gradientTransform="matrix(0, 182, 209, 0, -35532.42, -56538.92)" gradientUnits="userSpaceOnUse"><stop offset="0" stop-color="#337037"/><stop offset="1" stop-color="#3d7839"/></linearGradient><linearGradient id="linear-gradient-10" x1="311.58" y1="174.84" x2="312.16" y2="174.26" gradientTransform="matrix(0, 210, 154, 0, -26871.91, -65531.93)" gradientUnits="userSpaceOnUse"><stop offset="0" stop-color="#499e45"/><stop offset="1" stop-color="#3d9444"/></linearGradient><linearGradient id="linear-gradient-11" x1="311.69" y1="174.77" x2="312.26" y2="174.2" gradientTransform="matrix(0, 210, 151, 0, -26285.41, -65531.93)" gradientUnits="userSpaceOnUse"><stop offset="0" stop-color="#5faf46"/><stop offset="1" stop-color="#56a846"/></linearGradient><linearGradient id="linear-gradient-12" x1="313.37" y1="175.76" x2="313.94" y2="175.19" gradientTransform="matrix(0, 314, 77, 0, -13523.46, -98482.17)" gradientUnits="userSpaceOnUse"><stop offset="0" stop-color="#6ab345"/><stop offset="1" stop-color="#499e45"/></linearGradient><linearGradient id="linear-gradient-13" x1="310.15" y1="174.79" x2="310.72" y2="174.22" gradientTransform="matrix(0, 171, 151, 0, -26285.41, -53029.91)" gradientUnits="userSpaceOnUse"><stop offset="0" stop-color="#41a848"/><stop offset="1" stop-color="#2e9345"/></linearGradient><linearGradient id="linear-gradient-14" x1="284.62" y1="170.51" x2="285.19" y2="169.94" gradientTransform="matrix(0, 40, 85, 0, -13862.46, -11222.94)" gradientUnits="userSpaceOnUse"><stop offset="0" stop-color="#203c1c"/><stop offset="1" stop-color="#203e1c"/></linearGradient><linearGradient id="linear-gradient-15" x1="305.75" y1="173.78" x2="306.32" y2="173.2" gradientTransform="matrix(0, 107, 169, 0, -29048.42, -32684.97)" gradientUnits="userSpaceOnUse"><stop offset="0" stop-color="#81bc41"/><stop offset="1" stop-color="#69b345"/></linearGradient><linearGradient id="linear-gradient-16" x1="309.7" y1="173.5" x2="310.27" y2="172.93" gradientTransform="matrix(0, 164, 161, 0, -27549.42, -50753.91)" gradientUnits="userSpaceOnUse"><stop offset="0" stop-color="#62a143"/><stop offset="1" stop-color="#478e41"/></linearGradient><linearGradient id="linear-gradient-17" x1="308.14" y1="173.56" x2="308.72" y2="172.99" gradientTransform="matrix(0, 139, 111, 0, -18985.46, -42779.9)" gradientUnits="userSpaceOnUse"><stop offset="0" stop-color="#59ab46"/><stop offset="1" stop-color="#478a40"/></linearGradient><linearGradient id="linear-gradient-18" x1="308.32" y1="173.4" x2="308.9" y2="172.82" gradientTransform="matrix(0, 145, 161, 0, -27549.42, -44623.9)" gradientUnits="userSpaceOnUse"><stop offset="0" stop-color="#3c7e3c"/><stop offset="1" stop-color="#377a3b"/></linearGradient><linearGradient id="linear-gradient-19" x1="308.4" y1="173.42" x2="308.97" y2="172.84" gradientTransform="matrix(0, 145, 130, 0, -22196.9, -44623.9)" gradientUnits="userSpaceOnUse"><stop offset="0" stop-color="#40823d"/><stop offset="1" stop-color="#3e823e"/></linearGradient><linearGradient id="linear-gradient-20" x1="309.08" y1="171.4" x2="309.65" y2="170.83" gradientTransform="matrix(0, 157, 100, 0, -16564.96, -48431.91)" gradientUnits="userSpaceOnUse"><stop offset="0" stop-color="#2b5126"/><stop offset="1" stop-color="#284b22"/></linearGradient><linearGradient id="linear-gradient-21" x1="295.43" y1="172.01" x2="296.01" y2="171.44" gradientTransform="matrix(0, 59, 114, 0, -19107.96, -17326.95)" gradientUnits="userSpaceOnUse"><stop offset="0" stop-color="#2e6934"/><stop offset="1" stop-color="#2b5d2d"/></linearGradient><linearGradient id="linear-gradient-22" x1="306.25" y1="173.11" x2="306.82" y2="172.53" gradientTransform="matrix(0, 117, 214, 0, -36457.92, -35711.96)" gradientUnits="userSpaceOnUse"><stop offset="0" stop-color="#2b5529"/><stop offset="1" stop-color="#274c23"/></linearGradient><linearGradient id="linear-gradient-23" x1="310.31" y1="174.68" x2="310.89" y2="174.11" gradientTransform="matrix(0, 183, 149, 0, -25938.41, -56762.92)" gradientUnits="userSpaceOnUse"><stop offset="0" stop-color="#298541"/><stop offset="1" stop-color="#4fa346"/></linearGradient><linearGradient id="linear-gradient-24" x1="310.47" y1="175.87" x2="311.05" y2="175.3" gradientTransform="matrix(0, 183, 78, 0, -13696.96, -56762.92)" gradientUnits="userSpaceOnUse"><stop offset="0" stop-color="#2b8c43"/><stop offset="1" stop-color="#4ba146"/></linearGradient><linearGradient id="linear-gradient-25" x1="309.96" y1="174.8" x2="310.54" y2="174.22" gradientTransform="matrix(0, 177, 148, 0, -25763.91, -54760.92)" gradientUnits="userSpaceOnUse"><stop offset="0" stop-color="#5eac46"/><stop offset="1" stop-color="#6ea943"/></linearGradient><linearGradient id="linear-gradient-26" x1="306.57" y1="175.7" x2="307.15" y2="175.13" gradientTransform="matrix(0, 122, 78, 0, -13696.96, -37303.96)" gradientUnits="userSpaceOnUse"><stop offset="0" stop-color="#2f9244"/><stop offset="1" stop-color="#5aa946"/></linearGradient><linearGradient id="linear-gradient-27" x1="303.33" y1="174.78" x2="303.9" y2="174.2" gradientTransform="matrix(0, 94, 191, 0, -33284.43, -28366.96)" gradientUnits="userSpaceOnUse"><stop offset="0" stop-color="#26753a"/><stop offset="1" stop-color="#47893f"/></linearGradient><linearGradient id="linear-gradient-28" x1="311.18" y1="171.98" x2="311.76" y2="171.41" gradientTransform="matrix(0, 202, 119, 0, -19917.46, -62878.93)" gradientUnits="userSpaceOnUse"><stop offset="0" stop-color="#46833d"/><stop offset="1" stop-color="#2f6431"/></linearGradient><linearGradient id="linear-gradient-29" x1="285.69" y1="169.85" x2="286.27" y2="169.28" gradientTransform="matrix(0, 40, 65, 0, -10494.45, -11342.94)" gradientUnits="userSpaceOnUse"><stop offset="0" stop-color="#2c592b"/><stop offset="1" stop-color="#2c6230"/></linearGradient><linearGradient id="linear-gradient-30" x1="254.23" y1="171.56" x2="254.81" y2="170.98" gradientTransform="matrix(0, 20, 88, 0, -14570.96, -4982.94)" gradientUnits="userSpaceOnUse"><stop offset="0" stop-color="#57893d"/><stop offset="1" stop-color="#447738"/></linearGradient><linearGradient id="linear-gradient-31" x1="310.33" y1="174.28" x2="310.9" y2="173.7" gradientTransform="matrix(0, 183, 211, 0, -36546.42, -56727.92)" gradientUnits="userSpaceOnUse"><stop offset="0" stop-color="#5cb247"/><stop offset="1" stop-color="#358841"/></linearGradient><linearGradient id="linear-gradient-32" x1="310.3" y1="173.75" x2="310.88" y2="173.17" gradientTransform="matrix(0, 183, 118, 0, -20232.96, -56727.92)" gradientUnits="userSpaceOnUse"><stop offset="0" stop-color="#58aa46"/><stop offset="1" stop-color="#367b3b"/></linearGradient><linearGradient id="linear-gradient-33" x1="309.88" y1="174.26" x2="310.45" y2="173.69" gradientTransform="matrix(0, 177, 195, 0, -33787.43, -54760.92)" gradientUnits="userSpaceOnUse"><stop offset="0" stop-color="#31843f"/><stop offset="1" stop-color="#266c36"/></linearGradient><linearGradient id="linear-gradient-34" x1="296.98" y1="173.99" x2="297.56" y2="173.41" gradientTransform="matrix(0, 64, 248, 0, -42788.06, -18865.95)" gradientUnits="userSpaceOnUse"><stop offset="0" stop-color="#347238"/><stop offset="1" stop-color="#276a35"/></linearGradient><linearGradient id="linear-gradient-35" x1="294.86" y1="174.14" x2="295.44" y2="173.57" gradientTransform="matrix(0, 59, 443, 0, -76815.61, -17236.95)" gradientUnits="userSpaceOnUse"><stop offset="0" stop-color="#296432"/><stop offset="1" stop-color="#286532"/></linearGradient><linearGradient id="linear-gradient-36" x1="311.27" y1="173.81" x2="311.85" y2="173.23" gradientTransform="matrix(0, 201, 109, 0, -18708.46, -62634.93)" gradientUnits="userSpaceOnUse"><stop offset="0" stop-color="#7bbc42"/><stop offset="1" stop-color="#55ab47"/></linearGradient><linearGradient id="linear-gradient-37" x1="309.34" y1="173.75" x2="309.92" y2="173.17" gradientTransform="matrix(0, 152, 169, 0, -29048.42, -47052.91)" gradientUnits="userSpaceOnUse"><stop offset="0" stop-color="#8ac140"/><stop offset="1" stop-color="#6dba45"/></linearGradient><linearGradient id="linear-gradient-38" x1="310.12" y1="172.5" x2="310.7" y2="171.92" gradientTransform="matrix(0, 171, 125, 0, -21083.4, -53051.91)" gradientUnits="userSpaceOnUse"><stop offset="0" stop-color="#8db63f"/><stop offset="1" stop-color="#7caa41"/></linearGradient><linearGradient id="linear-gradient-39" x1="311.28" y1="172.64" x2="311.86" y2="172.07" gradientTransform="matrix(0, 202, 139, 0, -23472.41, -62878.93)" gradientUnits="userSpaceOnUse"><stop offset="0" stop-color="#76a841"/><stop offset="1" stop-color="#568c3f"/></linearGradient><linearGradient id="linear-gradient-40" x1="309.21" y1="172.39" x2="309.79" y2="171.81" gradientTransform="matrix(0, 155, 99, 0, -16631.46, -47891.91)" gradientUnits="userSpaceOnUse"><stop offset="0" stop-color="#5c9a42"/><stop offset="1" stop-color="#45893f"/></linearGradient><linearGradient id="linear-gradient-41" x1="292.05" y1="172.5" x2="292.62" y2="171.93" gradientTransform="matrix(0, 50, 139, 0, -23472.41, -14523.94)" gradientUnits="userSpaceOnUse"><stop offset="0" stop-color="#377639"/><stop offset="1" stop-color="#3e7e3c"/></linearGradient><linearGradient id="linear-gradient-42" x1="305.51" y1="170.02" x2="306.08" y2="169.45" gradientTransform="matrix(0, 109, 53, 0, -8551.45, -33226.96)" gradientUnits="userSpaceOnUse"><stop offset="0" stop-color="#48843d"/><stop offset="1" stop-color="#427c3b"/></linearGradient><linearGradient id="linear-gradient-43" x1="305.67" y1="172.83" x2="306.25" y2="172.25" gradientTransform="matrix(0, 109, 126, 0, -21315.9, -33226.96)" gradientUnits="userSpaceOnUse"><stop offset="0" stop-color="#3d803d"/><stop offset="1" stop-color="#357137"/></linearGradient><linearGradient id="linear-gradient-44" x1="312.84" y1="173.22" x2="313.41" y2="172.64" gradientTransform="matrix(0, 260, 144, 0, -24523.91, -81436.94)" gradientUnits="userSpaceOnUse"><stop offset="0" stop-color="#67ae44"/><stop offset="1" stop-color="#70b043"/></linearGradient><linearGradient id="linear-gradient-45" x1="308.44" y1="173.62" x2="309.02" y2="173.04" gradientTransform="matrix(0, 134, 148, 0, -25365.91, -41377.96)" gradientUnits="userSpaceOnUse"><stop offset="0" stop-color="#68af44"/><stop offset="1" stop-color="#86bf40"/></linearGradient><linearGradient id="linear-gradient-46" x1="308.98" y1="173.32" x2="309.56" y2="172.74" gradientTransform="matrix(0, 143, 162, 0, -27664.92, -44230.9)" gradientUnits="userSpaceOnUse"><stop offset="0" stop-color="#74b243"/><stop offset="1" stop-color="#75b343"/></linearGradient><linearGradient id="linear-gradient-47" x1="304.77" y1="172.65" x2="305.35" y2="172.08" gradientTransform="matrix(0, 105, 126, 0, -21315.9, -31886.97)" gradientUnits="userSpaceOnUse"><stop offset="0" stop-color="#347639"/><stop offset="1" stop-color="#2b592b"/></linearGradient><linearGradient id="linear-gradient-48" x1="304.93" y1="172.86" x2="305.5" y2="172.28" gradientTransform="matrix(0, 105, 112, 0, -18943.96, -31886.97)" gradientUnits="userSpaceOnUse"><stop offset="0" stop-color="#377a3b"/><stop offset="1" stop-color="#286030"/></linearGradient><linearGradient id="linear-gradient-49" x1="298.03" y1="173.42" x2="298.6" y2="172.84" gradientTransform="matrix(0, 68, 285, 0, -48847.67, -20120.95)" gradientUnits="userSpaceOnUse"><stop offset="0" stop-color="#2a5529"/><stop offset="1" stop-color="#254721"/></linearGradient><linearGradient id="linear-gradient-50" x1="283.37" y1="174.19" x2="283.95" y2="173.61" gradientTransform="matrix(0, 39, 555, 0, -96247.74, -10876.94)" gradientUnits="userSpaceOnUse"><stop offset="0" stop-color="#266a35"/><stop offset="1" stop-color="#286030"/></linearGradient></defs><title>polygonlove5-01</title><g class="cls-2"><g id="_1" data-name="1"><g class="cls-3"><g class="cls-4"><polygon id="triangle36" class="cls-5" points="317 28.1 410 33.3 376.1 122.6 317 28.1"/><polygon id="triangle36-2" data-name="triangle36" class="cls-6" points="601.9 13.1 550.2 87.4 615.1 156.6 601.9 13.1"/><polygon id="triangle36-3" data-name="triangle36" class="cls-7" points="550.2 87.4 571.4 177.9 615.1 156.6 550.2 87.4"/><polygon id="triangle36-4" data-name="triangle36" class="cls-8" points="589.2 -138.4 601.9 13.1 625.4 -278.3 589.2 -138.4"/><polygon id="triangle36-5" data-name="triangle36" class="cls-9" points="179.7 -59.4 99.8 -4.7 219.9 56.3 179.7 -59.4"/><polygon id="triangle36-6" data-name="triangle36" class="cls-10" points="99.8 -4.7 98.7 93.8 219.9 56.3 99.8 -4.7"/><polygon id="triangle36-7" data-name="triangle36" class="cls-11" points="589.2 -138.4 601.9 13.1 481.8 -17.4 589.2 -138.4"/><polygon id="triangle36-8" data-name="triangle36" class="cls-12" points="406 -116.5 410 33.3 481.8 -17.4 406 -116.5"/><polygon id="triangle36-9" data-name="triangle36" class="cls-13" points="601.9 13.1 550.2 87.4 481.8 -17.4 601.9 13.1"/><polygon id="triangle36-10" data-name="triangle36" class="cls-14" points="63.6 -84.8 -24.9 -74.4 13.1 36.2 63.6 -84.8"/><polygon id="triangle36-11" data-name="triangle36" class="cls-15" points="63.6 -84.8 99.8 -4.7 13.1 36.2 63.6 -84.8"/><polygon id="triangle36-12" data-name="triangle36" class="cls-16" points="-24.9 -74.4 -31.2 106.5 13.1 36.2 -24.9 -74.4"/><polygon id="triangle36-13" data-name="triangle36" class="cls-17" points="99.8 -4.7 98.7 93.8 13.1 36.2 99.8 -4.7"/><polygon id="triangle36-14" data-name="triangle36" class="cls-18" points="615.1 156.6 571.4 177.9 620.3 179.6 615.1 156.6"/><polygon id="triangle36-15" data-name="triangle36" class="cls-19" points="317 28.1 219.9 56.3 283.6 89.7 317 28.1"/><polygon id="triangle36-16" data-name="triangle36" class="cls-20" points="317 28.1 376.1 122.6 283.6 89.7 317 28.1"/><polygon id="triangle36-17" data-name="triangle36" class="cls-21" points="219.9 56.3 268.7 136.4 283.6 89.7 219.9 56.3"/><polygon id="triangle36-18" data-name="triangle36" class="cls-22" points="376.1 122.6 343.4 173.3 283.6 89.7 376.1 122.6"/><polygon id="triangle36-19" data-name="triangle36" class="cls-23" points="268.7 136.4 343.4 173.3 283.6 89.7 268.7 136.4"/><polygon id="triangle36-20" data-name="triangle36" class="cls-24" points="550.2 87.4 571.4 177.9 514 110.5 550.2 87.4"/><polygon id="triangle36-21" data-name="triangle36" class="cls-25" points="463.4 109.9 448.5 143.9 514 110.5 463.4 109.9"/><polygon id="triangle36-22" data-name="triangle36" class="cls-26" points="448.5 143.9 571.4 177.9 514 110.5 448.5 143.9"/><polygon id="triangle36-23" data-name="triangle36" class="cls-27" points="13.1 36.2 98.7 93.8 13.6 141.6 13.1 36.2"/><polygon id="triangle36-24" data-name="triangle36" class="cls-28" points="13.1 36.2 -31.2 106.5 13.6 141.6 13.1 36.2"/><polygon id="triangle36-25" data-name="triangle36" class="cls-29" points="98.7 93.8 88.9 195.7 13.6 141.6 98.7 93.8"/><polygon id="triangle36-26" data-name="triangle36" class="cls-30" points="-31.2 106.5 -20.8 176.7 13.6 141.6 -31.2 106.5"/><polygon id="triangle36-27" data-name="triangle36" class="cls-31" points="-20.8 176.7 88.9 195.7 13.6 141.6 -20.8 176.7"/><polygon id="triangle36-28" data-name="triangle36" class="cls-32" points="481.8 -17.4 550.2 87.4 512.8 99 481.8 -17.4"/><polygon id="triangle36-29" data-name="triangle36" class="cls-33" points="550.2 87.4 514 110.5 512.8 99 550.2 87.4"/><polygon id="triangle36-30" data-name="triangle36" class="cls-34" points="463.4 109.9 514 110.5 512.8 99 463.4 109.9"/><polygon id="triangle36-31" data-name="triangle36" class="cls-35" points="219.9 56.3 98.7 93.8 200.9 161.8 219.9 56.3"/><polygon id="triangle36-32" data-name="triangle36" class="cls-36" points="219.9 56.3 268.7 136.4 200.9 161.8 219.9 56.3"/><polygon id="triangle36-33" data-name="triangle36" class="cls-37" points="98.7 93.8 88.9 195.7 200.9 161.8 98.7 93.8"/><polygon id="triangle36-34" data-name="triangle36" class="cls-38" points="268.7 136.4 343.4 173.3 200.9 161.8 268.7 136.4"/><polygon id="triangle36-35" data-name="triangle36" class="cls-39" points="343.4 173.3 88.9 195.7 200.9 161.8 343.4 173.3"/><polygon id="triangle36-36" data-name="triangle36" class="cls-40" points="179.7 -59.4 219.9 56.3 242.3 -31.2 179.7 -59.4"/><polygon id="triangle36-37" data-name="triangle36" class="cls-41" points="317 28.1 219.9 56.3 242.3 -31.2 317 28.1"/><polygon id="triangle36-38" data-name="triangle36" class="cls-42" points="481.8 -17.4 410 33.3 433 81.1 481.8 -17.4"/><polygon id="triangle36-39" data-name="triangle36" class="cls-43" points="481.8 -17.4 512.8 99 433 81.1 481.8 -17.4"/><polygon id="triangle36-40" data-name="triangle36" class="cls-44" points="410 33.3 376.1 122.6 433 81.1 410 33.3"/><polygon id="triangle36-41" data-name="triangle36" class="cls-45" points="512.8 99 463.4 109.9 433 81.1 512.8 99"/><polygon id="triangle36-42" data-name="triangle36" class="cls-46" points="463.4 109.9 448.5 143.9 433 81.1 463.4 109.9"/><polygon id="triangle36-43" data-name="triangle36" class="cls-47" points="376.1 122.6 448.5 143.9 433 81.1 376.1 122.6"/><polygon id="triangle36-44" data-name="triangle36" class="cls-48" points="406 -116.5 410 33.3 327.3 -49.1 406 -116.5"/><polygon id="triangle36-45" data-name="triangle36" class="cls-49" points="242.3 -31.2 317 28.1 327.3 -49.1 242.3 -31.2"/><polygon id="triangle36-46" data-name="triangle36" class="cls-50" points="317 28.1 410 33.3 327.3 -49.1 317 28.1"/><polygon id="triangle36-47" data-name="triangle36" class="cls-51" points="376.1 122.6 448.5 143.9 407.7 183.1 376.1 122.6"/><polygon id="triangle36-48" data-name="triangle36" class="cls-52" points="376.1 122.6 343.4 173.3 407.7 183.1 376.1 122.6"/><polygon id="triangle36-49" data-name="triangle36" class="cls-53" points="448.5 143.9 571.4 177.9 407.7 183.1 448.5 143.9"/><polygon id="triangle36-50" data-name="triangle36" class="cls-54" points="343.4 173.3 88.9 195.7 407.7 183.1 343.4 173.3"/></g><rect class="cls-55" y="-667.5" width="595.3" height="841.89"/></g></g></g></svg>