<?xml version="1.0" encoding="UTF-8" standalone="no"?>
<svg width="26px" height="24px" viewBox="0 0 26 24" version="1.1" xmlns="http://www.w3.org/2000/svg" xmlns:xlink="http://www.w3.org/1999/xlink">
    <!-- Generator: Sketch 3.8.2 (29753) - http://www.bohemiancoding.com/sketch -->
    <title>altersmedizin-geriatrie@3x</title>
    <desc>Created with Sketch.</desc>
    <defs></defs>
    <g id="Page-1" stroke="none" stroke-width="1" fill="none" fill-rule="evenodd">
        <g id="altersmedizin-geriatrie" fill="#6D6E71">
            <g id="altersmedizin_geriatrie">
                <g id="Ebene_1">
                    <path d="M15.0139535,12.3906977 C14.9023256,12.3906977 14.7906977,12.3906977 14.7348837,12.3348837 L13.2837209,11.7767442 C12.8372093,11.6093023 12.6697674,11.1627907 12.8372093,10.7162791 C13.0046512,10.2697674 13.5069767,10.0465116 13.8976744,10.2139535 L15.3488372,10.772093 C15.7953488,10.9395349 16.0186047,11.4418605 15.8511628,11.8325581 C15.6837209,12.2232558 15.3488372,12.3906977 15.0139535,12.3906977 L15.0139535,12.3906977 Z" id="Shape"></path>
                    <path d="M25.172093,5.24651163 C24.6139535,4.0744186 23.7767442,3.29302326 22.7162791,3.01395349 C21.3209302,2.56744186 19.8697674,3.06976744 19.144186,3.34883721 C17.1348837,1.61860465 14.5116279,0.502325581 11.6093023,0.502325581 C5.24651163,0.502325581 0.0558139535,5.69302326 0.0558139535,12.055814 C0.0558139535,18.4186047 5.24651163,23.6093023 11.6093023,23.6093023 C17.972093,23.6093023 23.1069767,18.4186047 23.1069767,12.055814 C23.1069767,11.8325581 23.1069767,11.6651163 23.0511628,11.4418605 C24.4465116,10.4372093 26.5116279,7.9255814 25.172093,5.24651163 L25.172093,5.24651163 Z M4.85581395,4.85581395 C5.35813953,5.58139535 6.41860465,6.64186047 8.37209302,6.64186047 C8.59534884,6.64186047 8.8744186,6.64186047 9.09767442,6.58604651 C10.9395349,6.3627907 12,5.5255814 12.5581395,4.91162791 C12.8372093,4.57674419 12.8372093,4.01860465 12.4465116,3.73953488 C12.1116279,3.46046512 11.5534884,3.46046512 11.2744186,3.85116279 C10.772093,4.46511628 9.93488372,4.85581395 8.93023256,4.96744186 C7.70232558,5.13488372 6.80930233,4.74418605 6.25116279,3.90697674 C6.25116279,3.85116279 6.19534884,3.85116279 6.19534884,3.85116279 C7.75813953,2.79069767 9.6,2.23255814 11.6093023,2.23255814 C16.0186047,2.23255814 19.7581395,5.13488372 20.9860465,9.15348837 C20.1488372,8.98604651 19.255814,9.43255814 18.6418605,10.2139535 C18.1395349,8.31627907 16.4093023,6.92093023 14.344186,6.92093023 C12.4465116,6.92093023 10.772093,8.14883721 10.1581395,9.82325581 L9.04186047,9.87906977 C8.42790698,8.14883721 6.75348837,6.92093023 4.85581395,6.92093023 C4.18604651,6.92093023 3.51627907,7.08837209 2.95813953,7.36744186 C3.46046512,6.41860465 4.13023256,5.58139535 4.85581395,4.85581395 L4.85581395,4.85581395 Z M17.1348837,11.3302326 C17.1348837,12.8372093 15.9069767,14.1209302 14.344186,14.1209302 C12.7813953,14.1209302 11.5534884,12.8930233 11.5534884,11.3302326 C11.5534884,9.76744186 12.7813953,8.53953488 14.344186,8.53953488 C15.9069767,8.53953488 17.1348837,9.82325581 17.1348837,11.3302326 L17.1348837,11.3302326 Z M4.85581395,8.53953488 C6.3627907,8.53953488 7.64651163,9.76744186 7.64651163,11.3302326 C7.64651163,12.8930233 6.41860465,14.1209302 4.85581395,14.1209302 C3.34883721,14.1209302 2.06511628,12.8930233 2.06511628,11.3302326 C2.06511628,9.76744186 3.34883721,8.53953488 4.85581395,8.53953488 L4.85581395,8.53953488 Z M21.0976744,12.5023256 C20.8744186,13.4511628 20.2604651,13.9534884 19.9255814,13.8976744 C19.4790698,13.7860465 19.0325581,14.0651163 18.9209302,14.5116279 C18.8093023,14.9581395 19.0883721,15.4046512 19.5348837,15.5162791 C19.7023256,15.572093 19.8139535,15.572093 19.9813953,15.572093 C20.2604651,15.572093 20.5395349,15.5162791 20.7627907,15.4046512 C19.3674419,19.144186 15.7395349,21.8790698 11.5534884,21.8790698 C7.08837209,21.8790698 3.34883721,18.9209302 2.12093023,14.8465116 C2.84651163,15.4046512 3.79534884,15.7395349 4.8,15.7395349 C7.2,15.7395349 9.15348837,13.8418605 9.26511628,11.4418605 L9.87906977,11.4418605 C9.93488372,13.8418605 11.944186,15.7395349 14.344186,15.7395349 C16.2976744,15.7395349 17.972093,14.455814 18.5302326,12.7255814 C18.9767442,12.7813953 19.4232558,12.5581395 19.4790698,12.1116279 C19.7023256,11.1627907 20.3162791,10.6046512 20.6511628,10.7162791 C20.7627907,10.772093 20.9302326,10.9395349 21.0418605,11.1627907 C21.2093023,11.5534884 21.2093023,12.055814 21.0976744,12.5023256 L21.0976744,12.5023256 Z M20.427907,4.63255814 C20.9302326,4.46511628 21.6,4.35348837 22.2139535,4.57674419 C22.827907,4.74418605 23.3302326,5.24651163 23.6651163,5.97209302 C24.3348837,7.36744186 23.4976744,8.65116279 22.772093,9.43255814 C22.3813953,7.64651163 21.544186,6.02790698 20.427907,4.63255814 L20.427907,4.63255814 Z" id="Shape"></path>
                    <path d="M4.18604651,12.3906977 C3.85116279,12.3906977 3.51627907,12.1674419 3.40465116,11.8325581 C3.2372093,11.3860465 3.46046512,10.9395349 3.90697674,10.772093 L5.35813953,10.2139535 C5.80465116,10.0465116 6.25116279,10.2697674 6.41860465,10.7162791 C6.58604651,11.1627907 6.3627907,11.6093023 5.91627907,11.7767442 L4.46511628,12.3348837 C4.40930233,12.3906977 4.29767442,12.3906977 4.18604651,12.3906977 L4.18604651,12.3906977 Z" id="Shape"></path>
                    <path d="M10.8837209,16.9674419 C10.0465116,17.3023256 9.15348837,17.3023256 8.31627907,16.9674419 C7.86976744,16.8 7.42325581,17.0232558 7.25581395,17.4139535 C7.08837209,17.8604651 7.31162791,18.3069767 7.70232558,18.4744186 C8.31627907,18.6976744 8.93023256,18.8093023 9.6,18.8093023 C10.2697674,18.8093023 10.8837209,18.6976744 11.4976744,18.4186047 C11.944186,18.2511628 12.1116279,17.7488372 11.944186,17.3581395 C11.8325581,17.0232558 11.3302326,16.8 10.8837209,16.9674419 L10.8837209,16.9674419 Z" id="Shape"></path>
                </g>
            </g>
        </g>
    </g>
</svg>