<?xml version="1.0" encoding="UTF-8" standalone="no"?>
<svg width="20px" height="12px" viewBox="0 0 20 12" version="1.1" xmlns="http://www.w3.org/2000/svg" xmlns:xlink="http://www.w3.org/1999/xlink">
    <!-- Generator: Sketch 3.8.2 (29753) - http://www.bohemiancoding.com/sketch -->
    <title>augen@3x</title>
    <desc>Created with Sketch.</desc>
    <defs></defs>
    <g id="Page-1" stroke="none" stroke-width="1" fill="none" fill-rule="evenodd">
        <g id="augen" fill="#6D6E71">
            <g id="noun_372882">
                <path d="M19.8565217,5.8726087 C19.8578261,5.86956522 19.8582609,5.86652174 19.8591304,5.86347826 C19.8813043,5.8 19.8913043,5.73434783 19.8930435,5.66869565 C19.8930435,5.66 19.8943478,5.65130435 19.8943478,5.64217391 C19.8930435,5.57782609 19.8813043,5.51391304 19.8617391,5.45217391 C19.8573913,5.44043478 19.853913,5.42869565 19.85,5.4173913 C19.826087,5.35608696 19.793913,5.29956522 19.7521739,5.24695652 C19.7486957,5.2426087 19.7478261,5.2373913 19.7443478,5.23304348 C19.5673913,5.02173913 15.35,0.0430434783 10,0.0430434783 C4.65217391,0.0430434783 0.433478261,5.02130435 0.256086957,5.23347826 C0.252608696,5.23826087 0.251304348,5.24391304 0.247391304,5.24869565 C0.206521739,5.30043478 0.173913043,5.35695652 0.150434783,5.41782609 C0.146086957,5.42956522 0.142608696,5.44086957 0.138695652,5.4526087 C0.119130435,5.51478261 0.106956522,5.57826087 0.105652174,5.64347826 C0.105652174,5.65173913 0.107391304,5.65869565 0.107391304,5.66695652 C0.108695652,5.73434783 0.118695652,5.80217391 0.142173913,5.86782609 C0.142173913,5.86913043 0.142608696,5.87043478 0.143043478,5.87173913 C0.15826087,5.91478261 0.177826087,5.95608696 0.202608696,5.99608696 C0.213478261,6.01391304 0.229130435,6.02695652 0.241304348,6.04347826 C0.247826087,6.05173913 0.25,6.06130435 0.256086957,6.06956522 C0.432608696,6.28130435 4.63086957,11.233913 9.95826087,11.26 C9.97173913,11.2604348 9.98565217,11.2621739 9.99913043,11.2621739 C10.0113043,11.2621739 10.0234783,11.2604348 10.0356522,11.2604348 C15.3678261,11.2378261 19.5678261,6.28173913 19.7443478,6.07 C19.7486957,6.06478261 19.7495652,6.05869565 19.7534783,6.05304348 C19.7686957,6.03391304 19.7847826,6.01652174 19.7978261,5.99565217 C19.8226087,5.95521739 19.8417391,5.91434783 19.8565217,5.8726087 L19.8565217,5.8726087 Z M10.0017391,1.3473913 C12.156087,1.3473913 14.15,2.31652174 15.6895652,3.37652174 C14.1030435,2.8626087 12.1434783,2.4326087 10.0017391,2.4326087 L10,2.4326087 C7.85391304,2.4326087 5.89130435,2.86434783 4.3026087,3.37956522 C5.84173913,2.31826087 7.83869565,1.3473913 10.0017391,1.3473913 L10.0017391,1.3473913 Z M10,4.87217391 C10.4295652,4.87217391 10.7786957,5.22173913 10.7786957,5.65130435 C10.7786957,6.08043478 10.4295652,6.43 10,6.43 C9.57086957,6.43 9.22086957,6.08043478 9.22086957,5.65130435 C9.22086957,5.22173913 9.57086957,4.87217391 10,4.87217391 L10,4.87217391 Z M1.80478261,5.82 C2.39130435,5.52 3.31782609,5.09130435 4.47695652,4.7 C4.42347826,5.0126087 4.39086957,5.32913043 4.39086957,5.65130435 C4.39086957,6.67521739 4.67130435,7.63347826 5.1526087,8.46043478 C3.63608696,7.56347826 2.4526087,6.47652174 1.80478261,5.82 L1.80478261,5.82 Z M9.99913043,9.95695652 C7.62608696,9.95695652 5.69521739,8.02565217 5.69521739,5.65130435 C5.69521739,5.17608696 5.77521739,4.71434783 5.92521739,4.27173913 C6.90478261,4.02304348 7.98652174,3.83 9.13217391,3.76304348 C8.41652174,4.09347826 7.91652174,4.81304348 7.91652174,5.65130435 C7.91652174,6.8 8.85130435,7.73434783 10,7.73434783 C11.1491304,7.73434783 12.0830435,6.8 12.0830435,5.65130435 C12.0830435,4.81304348 11.5830435,4.09347826 10.8682609,3.76304348 C12.0130435,3.83 13.0952174,4.02391304 14.076087,4.27347826 C14.2256522,4.71608696 14.3052174,5.17695652 14.3052174,5.65130435 C14.3052174,8.02565217 12.3734783,9.95695652 9.99913043,9.95695652 L9.99913043,9.95695652 Z M14.843913,8.4673913 C15.3278261,7.63869565 15.61,6.67869565 15.61,5.65130435 C15.61,5.33 15.5773913,5.01347826 15.5243478,4.70173913 C16.6817391,5.09304348 17.6091304,5.52130435 18.1965217,5.82086957 C17.5478261,6.47956522 16.3634783,7.56913043 14.843913,8.4673913 L14.843913,8.4673913 Z" id="Shape"></path>
            </g>
        </g>
    </g>
</svg>