<?xml version="1.0" encoding="UTF-8" standalone="no"?>
<svg width="24px" height="24px" viewBox="0 0 24 24" version="1.1" xmlns="http://www.w3.org/2000/svg" xmlns:xlink="http://www.w3.org/1999/xlink">
    <!-- Generator: Sketch 3.8.2 (29753) - http://www.bohemiancoding.com/sketch -->
    <title>dermatologie@3x</title>
    <desc>Created with Sketch.</desc>
    <defs></defs>
    <g id="Page-1" stroke="none" stroke-width="1" fill="none" fill-rule="evenodd">
        <g id="dermatologie" fill="#6D6E71">
            <g id="noun_187804">
                <path d="M18.57552,1.0152 C18.17616,0.61536 17.6448,0.39504 17.08032,0.39456 C16.5144,0.39408 15.98352,0.61392 15.58224,1.01472 L1.01472,15.58272 C0.19008,16.40736 0.19008,17.74992 1.01472,18.57504 L5.42544,22.98528 C5.82432,23.38464 6.35568,23.60496 6.92016,23.60496 C7.48608,23.60544 8.01696,23.3856 8.41632,22.98576 L8.41728,22.98528 L22.98432,8.41728 C23.80944,7.59168 23.80944,6.24912 22.98432,5.42496 L18.57552,1.0152 L18.57552,1.0152 Z M11.24352,18.12384 L7.39968,21.96768 C7.27152,22.09584 7.10256,22.16496 6.9216,22.16496 C6.7416,22.16496 6.57168,22.09488 6.44352,21.96768 L2.03328,17.55744 C1.76976,17.29392 1.76976,16.86528 2.03328,16.60176 L5.8776,12.75792 L11.24352,18.12384 L11.24352,18.12384 Z M17.10624,12.26112 L12.2616,17.10528 L6.89568,11.73888 L11.74032,6.89472 L17.10624,12.26112 L17.10624,12.26112 Z M21.96768,7.39968 L18.12384,11.24304 L12.7584,5.87616 L16.60224,2.03136 C16.7304,1.90368 16.89936,1.83456 17.07936,1.83456 C17.26032,1.83456 17.42976,1.90464 17.5584,2.03328 L21.96864,6.44352 C22.23072,6.70704 22.23072,7.13568 21.96768,7.39968 L21.96768,7.39968 Z M6.2568,18.99408 C6.60192,18.64944 6.60288,18.0888 6.2568,17.74368 C5.91168,17.39856 5.35056,17.3976 5.0064,17.74368 C4.66032,18.08928 4.66128,18.64992 5.0064,18.99408 C5.35152,19.33968 5.9112,19.34016 6.2568,18.99408 L6.2568,18.99408 Z M17.74416,5.00592 C17.39904,5.35104 17.39904,5.91168 17.74416,6.25632 C18.08976,6.60144 18.65088,6.6024 18.99504,6.2568 C19.3416,5.9112 19.33968,5.35056 18.99456,5.00592 C18.64944,4.66032 18.09024,4.66032 17.74416,5.00592 L17.74416,5.00592 Z M6.2568,16.17504 C6.60192,15.82848 6.60288,15.26976 6.2568,14.92464 C5.91168,14.58 5.352,14.57952 5.00688,14.92464 C4.66128,15.2712 4.66128,15.83088 5.00688,16.176 C5.35152,16.52208 5.91072,16.52016 6.2568,16.17504 L6.2568,16.17504 Z M17.74416,7.82496 C17.39904,8.17152 17.39808,8.73024 17.74416,9.07536 C18.08928,9.42 18.64896,9.42048 18.99408,9.07536 C19.33968,8.7288 19.33968,8.16912 18.99456,7.824 C18.64992,7.47792 18.09024,7.47984 17.74416,7.82496 L17.74416,7.82496 Z M7.82448,17.74272 C7.47936,18.08928 7.48032,18.64848 7.82592,18.99456 C8.17152,19.33968 8.73024,19.3392 9.07584,18.99456 C9.42048,18.64848 9.42144,18.0888 9.07584,17.74368 C8.73024,17.39808 8.17008,17.39856 7.82448,17.74272 L7.82448,17.74272 Z M16.17648,6.25728 C16.5216,5.91072 16.5216,5.35152 16.17552,5.00544 C15.82992,4.6608 15.27072,4.6608 14.9256,5.00544 C14.58096,5.35152 14.58,5.9112 14.9256,6.2568 C15.27024,6.6024 15.83088,6.60144 16.17648,6.25728 L16.17648,6.25728 Z" id="Shape"></path>
            </g>
        </g>
    </g>
</svg>