<?xml version="1.0" encoding="UTF-8" standalone="no"?>
<svg width="30px" height="25px" viewBox="0 0 30 25" version="1.1" xmlns="http://www.w3.org/2000/svg" xmlns:xlink="http://www.w3.org/1999/xlink">
    <!-- Generator: Sketch 3.8.2 (29753) - http://www.bohemiancoding.com/sketch -->
    <title>geburt@3x</title>
    <desc>Created with Sketch.</desc>
    <defs></defs>
    <g id="Page-1" stroke="none" stroke-width="1" fill="none" fill-rule="evenodd">
        <g id="geburt" fill="#6D6E71">
            <g id="noun_187957">
                <path d="M29.155,4.30444444 C28.39,2.30777778 26.6894444,0.866666667 24.4905556,0.351111111 C22.2644444,-0.168888889 20.1427778,0.13 18.5138889,1.19611111 C16.9972222,2.19055556 15.965,3.81333333 15.6077778,5.76666667 C15.3455556,7.20277778 15.3316667,8.33722222 15.4766667,9.23888889 C14.3022222,9.53888889 13.3211111,9.94222222 12.5294444,10.4405556 C12.4122222,9.87555556 12.4094444,9.05611111 12.905,8.07111111 C13.6577778,6.575 13.7333333,4.94277778 13.1105556,3.595 C12.4827778,2.23555556 11.2038889,1.25888889 9.51055556,0.844444444 C9.06555556,0.737222222 8.61222222,1.00888889 8.50333333,1.45666667 C8.39388889,1.90388889 8.66777778,2.35444444 9.115,2.46388889 C10.3233333,2.75833333 11.1816667,3.39111111 11.5977778,4.29333333 C12.0122222,5.19055556 11.9483333,6.26666667 11.4166667,7.32222222 C10.9955556,8.16055556 10.8305556,8.92888889 10.8038889,9.59777778 C10.5711111,9.455 10.3177778,9.33555556 10.0444444,9.24388889 C8.74166667,8.80444444 7.22944444,9.02166667 5.79833333,9.795 C5.25611111,8.86111111 4.35555556,8.48111111 3.53444444,8.55833333 C1.97555556,8.70944444 0.403888889,10.3438889 0.415555556,13.1716667 C0.420555556,14.2827778 0.871666667,15.2288889 1.68666667,15.8355556 C2.09055556,16.1355556 2.68555556,16.4227778 3.53555556,16.5105556 C3.94444444,16.5522222 4.42333333,16.5366667 4.96,16.4633333 C4.60833333,18.3872222 4.92777778,20.5494444 6.43888889,22.2977778 C7.40111111,23.4105556 8.94444444,24.0833333 10.8572222,24.2811111 C12.2872222,24.4288889 13.9238889,24.3105556 15.6788889,23.9116667 C20.2133333,22.8816667 25.2944444,19.9877778 26.4227778,15.8466667 C26.62,15.1222222 26.6888889,14.6444444 26.7427778,14.2611111 C26.8394444,13.5811111 26.8794444,13.3 27.7166667,12.1005556 C29.5311111,9.50055556 30.0555556,6.65777778 29.155,4.30444444 L29.155,4.30444444 Z M26.3488889,11.1466667 C25.3311111,12.6033333 25.2183333,13.1361111 25.0911111,14.0272222 C25.0411111,14.3816667 24.9838889,14.7844444 24.8138889,15.4077778 C23.8716667,18.8638889 19.2261111,21.3955556 15.3083333,22.2861111 C11.8666667,23.0683333 8.95111111,22.655 7.69888889,21.2072222 C6.00944444,19.2527778 6.28888889,16.3827778 7.43777778,14.5588889 C7.68277778,14.1688889 7.56611111,13.6544444 7.17666667,13.4094444 C6.78833333,13.1655556 6.27277778,13.2822222 6.02777778,13.6705556 C5.83222222,13.9805556 5.65722222,14.3172222 5.50222222,14.6727778 C4.25055556,14.9833333 3.25555556,14.9266667 2.68055556,14.4988889 C2.16166667,14.1133333 2.08222222,13.4977778 2.08055556,13.1661111 C2.07277778,11.2422222 3.02,10.2838889 3.695,10.2183333 C4.07777778,10.1783333 4.30277778,10.4461111 4.43222222,10.7294444 C4.24055556,10.8905556 4.05055556,11.0583333 3.86722222,11.24 C3.53944444,11.5633333 3.53611111,12.0911111 3.85944444,12.4183333 C4.00055556,12.5616667 4.18055556,12.6422222 4.36611111,12.6616667 C4.60611111,12.6861111 4.85333333,12.6072222 5.03777778,12.4255556 C6.76722222,10.7161111 8.52888889,10.4938889 9.51333333,10.8238889 C10.1744444,11.0461111 10.5872222,11.5311111 10.7411111,12.215 C10.2377778,13.0922222 10.1788889,13.9511111 10.305,14.4811111 C10.3505556,14.6711111 10.4222222,14.855 10.5111111,15.0333333 C10.4916667,15.1777778 10.4327778,15.615 10.0794444,16.1833333 C9.83666667,16.5733333 9.95666667,17.0877778 10.3472222,17.3305556 C10.4583333,17.3988889 10.5794444,17.4383333 10.7011111,17.4516667 C11.0083333,17.4833333 11.3216667,17.3427778 11.4955556,17.0622222 C11.6377778,16.8344444 11.7466667,16.6183333 11.8338889,16.4183333 C11.9372222,16.4838889 12.0433333,16.5477778 12.155,16.6094444 C13.06,17.1016667 14.1705556,17.4105556 15.3677778,17.5344444 C17.0961111,17.7127778 19.0044444,17.5033333 20.7277778,16.8938889 C21.1616667,16.7405556 21.3883333,16.2644444 21.2355556,15.8305556 C21.0822222,15.3972222 20.6061111,15.1694444 20.1722222,15.3227778 C17.3011111,16.3372222 14.4172222,15.9411111 12.95,15.1455556 C12.3777778,14.8333333 12.0133333,14.4605556 11.9255556,14.0938889 C11.8938889,13.9611111 11.8888889,13.4955556 12.2411111,12.9444444 C12.6672222,12.2794444 13.6666667,11.3994444 15.9944444,10.8255556 C16.2355556,11.2616667 16.5294444,11.5983333 16.845,11.8527778 C16.2766667,11.9961111 15.6827778,12.1961111 15.1344444,12.475 C14.7244444,12.6838889 14.5611111,13.1855556 14.77,13.5961111 C14.9777778,14.005 15.48,14.1694444 15.8905556,13.9605556 C17.4116667,13.1866667 19.5177778,13.1566667 19.5383333,13.1561111 C19.9138889,13.1522222 20.2405556,12.8988889 20.3366667,12.5366667 C20.4327778,12.175 20.2755556,11.7922222 19.9516667,11.6033333 C19.9305556,11.5911111 19.4083333,11.2883333 18.2966667,10.7994444 C17.1527778,10.2972222 16.7805556,8.61611111 17.2466667,6.06722222 C17.5244444,4.54611111 18.2783333,3.34388889 19.4266667,2.59166667 C20.6877778,1.765 22.3066667,1.55166667 24.1088889,1.97555556 C25.7627778,2.36277778 27.0338889,3.42944444 27.5972222,4.90222222 C28.3083333,6.75666667 27.8644444,8.975 26.3488889,11.1466667 L26.3488889,11.1466667 Z M23.6938889,6.69111111 C23.2483333,6.80722222 22.9816667,7.26222222 23.0977778,7.70833333 C23.19,8.06 22.7233333,8.35777778 22.7005556,8.37222222 C22.3077778,8.60444444 22.1744444,9.11 22.4038889,9.50666667 C22.5427778,9.74666667 22.7838889,9.89111111 23.0405556,9.91777778 C23.2094444,9.935 23.3844444,9.90166667 23.5427778,9.81 C24.1322222,9.46888889 25.0416667,8.55388889 24.7111111,7.28666667 C24.595,6.84111111 24.1394444,6.575 23.6938889,6.69111111 L23.6938889,6.69111111 Z" id="Shape"></path>
            </g>
        </g>
    </g>
</svg>