<?xml version="1.0" encoding="UTF-8" standalone="no"?>
<svg width="26px" height="15px" viewBox="0 0 26 15" version="1.1" xmlns="http://www.w3.org/2000/svg" xmlns:xlink="http://www.w3.org/1999/xlink">
    <!-- Generator: Sketch 3.8.2 (29753) - http://www.bohemiancoding.com/sketch -->
    <title>gefaesse@3x</title>
    <desc>Created with Sketch.</desc>
    <defs></defs>
    <g id="Page-1" stroke="none" stroke-width="1" fill="none" fill-rule="evenodd">
        <g id="gefaesse" fill="#6D6E71">
            <g id="noun_372929">
                <path d="M24.8403103,5.60031034 C23.885931,3.94796552 22.399,2.88062069 21.0510345,2.88062069 C20.6386207,2.88062069 20.2571379,2.98013793 19.9191379,3.17558621 C18.7563103,3.84844828 17.4984483,4.33348276 16.198,4.64234483 C15.3296897,2.75106897 13.3075172,0.669275862 13.0206207,0.380137931 C12.7682414,0.125517241 12.3186207,0.125517241 12.0653448,0.380137931 C11.7901034,0.658068966 9.90286207,2.59686207 8.98703448,4.42762069 C7.97706897,4.12144828 6.99937931,3.70724138 6.08086207,3.17513793 C5.31968966,2.73537931 4.36710345,2.78468966 3.39703448,3.31275862 C2.53365517,3.783 1.73886207,4.59527586 1.15789655,5.60075862 C-0.120586207,7.81613793 0.0381034483,10.2215862 1.5357931,11.0854138 C1.53893103,11.0872069 1.54296552,11.0894483 1.547,11.0916897 C5.02203448,13.0963793 8.98255172,14.1556552 13,14.1556552 C17.0165517,14.1556552 21.0039655,13.0815862 24.4816897,11.0768966 C25.9614483,10.2206897 26.1196897,7.81524138 24.8403103,5.60031034 L24.8403103,5.60031034 Z M12.5432069,1.82896552 C13.7445862,3.13703448 15.2512414,5.11393103 15.2512414,6.13196552 C15.2512414,7.62517241 14.0359655,8.84 12.5432069,8.84 C11.0495517,8.84 9.83517241,7.62517241 9.83517241,6.13196552 C9.83517241,5.11572414 11.3422759,3.13793103 12.5432069,1.82896552 L12.5432069,1.82896552 Z M12.9995517,12.8108276 C9.22775862,12.8108276 5.50975862,11.8187931 2.24541379,9.94231034 C2.2377931,9.93737931 2.19296552,9.91182759 2.17637931,9.90286207 C1.49141379,9.48506897 1.38248276,7.90310345 2.32251724,6.27317241 C2.77437931,5.49093103 3.40017241,4.84272414 4.04031034,4.49396552 C4.57510345,4.20213793 5.07358621,4.147 5.40755172,4.33931034 C6.39644828,4.91175862 7.449,5.35734483 8.53562069,5.69131034 C8.50782759,5.84282759 8.4907931,5.99031034 8.4907931,6.13151724 C8.4907931,8.36617241 10.3085517,10.1843793 12.5436552,10.1843793 C14.7778621,10.1843793 16.5965172,8.36617241 16.5965172,6.13151724 C16.5965172,6.06965517 16.5848621,6.0042069 16.5790345,5.94055172 C17.3083793,5.76124138 18.0238276,5.5267931 18.7195517,5.24348276 C18.7092414,5.34927586 18.698931,5.45641379 18.6957931,5.56803448 C18.6711379,6.55065517 18.9773103,7.6457931 19.5582759,8.65037931 C20.1482069,9.67289655 20.9443448,10.4703793 21.7839655,10.9307586 C19.0266207,12.1585862 16.0321379,12.8108276 12.9995517,12.8108276 L12.9995517,12.8108276 Z M23.807931,9.91227586 C23.6765862,9.98803448 23.521931,10.0265862 23.3493448,10.0265862 L23.3488966,10.0265862 C22.6536207,10.0265862 21.5351724,9.38555172 20.7228966,7.97841379 C20.2710345,7.19617241 20.0222414,6.33010345 20.041069,5.60210345 C20.0558621,4.99334483 20.2566897,4.53341379 20.592,4.3402069 C20.7237931,4.264 20.878,4.22544828 21.0510345,4.22544828 C21.7458621,4.22544828 22.8634138,4.86648276 23.6756897,6.27272414 C24.6242414,7.91431034 24.5063448,9.50882759 23.807931,9.91227586 L23.807931,9.91227586 Z M21.4634483,5.8517931 C21.0904828,6.06651724 21.116931,6.81244828 21.5235172,7.51624138 C21.9292069,8.21958621 22.5621724,8.61675862 22.9360345,8.40158621 C23.309,8.18506897 23.2812069,7.43868966 22.8755172,6.7357931 C22.468931,6.032 21.8368621,5.63527586 21.4634483,5.8517931 L21.4634483,5.8517931 Z" id="Shape"></path>
            </g>
        </g>
    </g>
</svg>