<?xml version="1.0" encoding="UTF-8" standalone="no"?>
<svg width="22px" height="24px" viewBox="0 0 22 24" version="1.1" xmlns="http://www.w3.org/2000/svg" xmlns:xlink="http://www.w3.org/1999/xlink">
    <!-- Generator: Sketch 3.8.2 (29753) - http://www.bohemiancoding.com/sketch -->
    <title>gehirn@3x</title>
    <desc>Created with Sketch.</desc>
    <defs></defs>
    <g id="Page-1" stroke="none" stroke-width="1" fill="none" fill-rule="evenodd">
        <g id="gehirn" fill="#6D6E71">
            <g id="noun_188410">
                <path d="M12.2608696,0.0954782609 C7.1186087,0.0954782609 2.93478261,4.27930435 2.93478261,9.42156522 L2.93478261,9.87547826 L0.418956522,14.5742609 C0.289043478,14.8168696 0.296347826,15.1095652 0.437217391,15.345913 C0.578608696,15.5817391 0.83373913,15.7262609 1.10869565,15.7262609 L2.93478261,15.7262609 L2.93478261,18.6151304 C2.93478261,20.2695652 4.28086957,21.6151304 5.93478261,21.6151304 L9.32608696,21.6151304 L9.32608696,23.1224348 C9.32608696,23.5544348 9.67669565,23.9050435 10.1086957,23.9050435 C10.5406957,23.9050435 10.8913043,23.5544348 10.8913043,23.1224348 L10.8913043,20.8325217 C10.8913043,20.4005217 10.5406957,20.049913 10.1086957,20.049913 L5.93478261,20.049913 C5.14330435,20.049913 4.5,19.4066087 4.5,18.6151304 L4.5,14.9436522 C4.5,14.5116522 4.1493913,14.1610435 3.7173913,14.1610435 L2.41565217,14.1610435 L4.40713043,10.4410435 C4.46817391,10.3273043 4.5,10.2005217 4.5,10.0716522 L4.5,9.42156522 C4.5,5.14226087 7.98156522,1.66069565 12.2608696,1.66069565 C16.5401739,1.66069565 20.0217391,5.14226087 20.0217391,9.42156522 C20.0217391,11.4808696 19.2250435,13.4128696 17.7756522,14.8732174 C17.5873043,15.0177391 17.4688696,15.2452174 17.4688696,15.4946087 L17.4688696,23.0984348 C17.4688696,23.5304348 17.8194783,23.8810435 18.2514783,23.8810435 C18.6834783,23.8810435 19.034087,23.5304348 19.034087,23.0984348 L19.034087,15.8238261 C20.6827826,14.0874783 21.5869565,11.8267826 21.5869565,9.42156522 C21.5869565,4.27878261 17.4031304,0.0954782609 12.2608696,0.0954782609 L12.2608696,0.0954782609 Z M18.9892174,8.59826087 C19.2615652,6.09443478 16.9424348,3.12886957 13.053913,2.70469565 C10.965913,2.47617391 7.00695652,3.55982609 6.29582609,6.3026087 C6.08452174,7.11913043 6.15130435,7.80156522 6.49565217,8.33008696 C7.06434783,9.20347826 8.18608696,9.38817391 9.17634783,9.55147826 C9.50191304,9.60573913 9.80973913,9.65582609 10.0867826,9.72573913 C10.428,9.81182609 10.7483478,10.0643478 11.1537391,10.3836522 C11.7954783,10.8902609 12.5947826,11.52 13.9528696,11.8982609 C13.9690435,11.9029565 13.9846957,11.9045217 14.0008696,11.9092174 C13.7765217,12.3829565 13.6612174,12.9250435 13.6789565,13.4984348 C13.692,13.9226087 14.0394783,14.2570435 14.4605217,14.2570435 C14.4688696,14.2570435 14.4766957,14.2570435 14.4850435,14.2565217 C14.9170435,14.2434783 15.2566957,13.8824348 15.2431304,13.4504348 C15.2347826,13.176 15.278087,12.5347826 15.7648696,12.1142609 C17.5617391,11.9911304 18.7591304,10.6982609 18.9892174,8.59826087 L18.9892174,8.59826087 Z M15.4737391,10.5610435 C15.1471304,10.5605217 14.7766957,10.5036522 14.3723478,10.3904348 C13.3168696,10.0966957 12.7090435,9.61773913 12.122087,9.15495652 C11.613913,8.75426087 11.133913,8.37652174 10.4697391,8.20904348 C10.1290435,8.12295652 9.77373913,8.06452174 9.43043478,8.00765217 C8.79286957,7.90278261 7.99982609,7.77182609 7.80730435,7.47652174 C7.71547826,7.33565217 7.71756522,7.0586087 7.81147826,6.69547826 C8.22678261,5.09321739 10.7801739,4.23965217 12.4643478,4.23965217 C12.6130435,4.23965217 12.7544348,4.24695652 12.8853913,4.26104348 C16.0690435,4.608 17.5951304,6.94591304 17.433913,8.42869565 C17.3285217,9.396 16.9053913,10.5469565 15.501913,10.5589565 C15.492,10.5589565 15.4831304,10.5610435 15.4737391,10.5610435 L15.4737391,10.5610435 Z" id="Shape"></path>
            </g>
        </g>
    </g>
</svg>