<?xml version="1.0" encoding="UTF-8" standalone="no"?>
<svg width="30px" height="18px" viewBox="0 0 30 18" version="1.1" xmlns="http://www.w3.org/2000/svg" xmlns:xlink="http://www.w3.org/1999/xlink">
    <!-- Generator: Sketch 3.8.2 (29753) - http://www.bohemiancoding.com/sketch -->
    <title>gynaekologie@3x</title>
    <desc>Created with Sketch.</desc>
    <defs></defs>
    <g id="Page-1" stroke="none" stroke-width="1" fill="none" fill-rule="evenodd">
        <g id="gynaekologie" fill="#6D6E71">
            <g id="noun_372892">
                <path d="M27.0445161,0.232741935 C25.6587097,0.232741935 24.9745161,1.06451613 24.4243548,1.73274194 C23.8770968,2.39709677 23.5180645,2.83645161 22.5333871,2.70822581 C21.1117742,2.52387097 20.2219355,2.0666129 19.2783871,1.58274194 C18.1422581,1.00064516 16.968871,0.398709677 14.9995161,0.398709677 C13.031129,0.398709677 11.8567742,1.00064516 10.7216129,1.58274194 C9.77854839,2.0666129 8.88725806,2.52387097 7.46612903,2.70822581 C6.48387097,2.83306452 6.12193548,2.39709677 5.57516129,1.73177419 C5.02548387,1.06354839 4.34080645,0.232741935 2.95548387,0.232741935 C1.53048387,0.232741935 0.0159677419,1.25516129 0.0159677419,3.15 C0.0159677419,4.52903226 0.930967742,5.38693548 1.99016129,6.38032258 C2.115,6.49741935 2.24419355,6.6183871 2.37725806,6.74516129 C2.22629032,7.07322581 2.14790323,7.43612903 2.17112903,7.82080645 C2.2083871,8.43870968 2.48032258,9.03048387 2.93612903,9.48677419 C3.42580645,9.97548387 4.08532258,10.256129 4.74580645,10.256129 C5.34048387,10.256129 5.89112903,10.0330645 6.29758065,9.62758065 C7.18403226,8.74016129 7.12064516,7.23290323 6.15532258,6.26806452 C5.66612903,5.7783871 5.0066129,5.49774194 4.34564516,5.49774194 C4.00790323,5.49774194 3.68854839,5.57709677 3.39725806,5.71306452 C3.25548387,5.57709677 3.1166129,5.44645161 2.98306452,5.3216129 C1.95967742,4.3616129 1.46758065,3.86806452 1.46758065,3.15 C1.46758065,1.99064516 2.44112903,1.68435484 2.95548387,1.68435484 C3.62467742,1.68435484 3.92951613,2.01725806 4.45451613,2.655 C4.95725806,3.26564516 5.61822581,4.06306452 6.87048387,4.16709677 C7.16903226,7.38774194 9.38419355,9.22112903 11.0341935,10.5841935 C12.1316129,11.4904839 13.08,12.273871 13.08,13.0867742 C13.08,13.646129 12.9614516,13.9166129 12.8109677,14.2587097 C12.6493548,14.6283871 12.4480645,15.0866129 12.4480645,15.836129 L12.4480645,16.4608065 C12.4480645,16.8614516 12.7732258,17.1866129 13.173871,17.1866129 C13.5745161,17.1866129 13.8996774,16.8614516 13.8996774,16.4608065 L13.8996774,15.836129 C13.8996774,15.3909677 14.0008065,15.161129 14.1406452,14.8417742 C14.3143548,14.445 14.5316129,13.9504839 14.5316129,13.0867742 C14.5316129,11.5896774 13.2817742,10.5575806 11.958871,9.46548387 C10.3577419,8.14258065 8.56064516,6.65467742 8.31629032,4.03693548 C9.62467742,3.77516129 10.5532258,3.30096774 11.3845161,2.87467742 C12.4562903,2.32451613 13.3824194,1.85032258 15.0004839,1.85032258 C16.6185484,1.85032258 17.5441935,2.32451613 18.6159677,2.87467742 C19.4472581,3.30096774 20.3758065,3.77516129 21.6851613,4.03693548 C21.4403226,6.65467742 19.6427419,8.14209677 18.0420968,9.46548387 C16.7187097,10.5580645 15.468871,11.5901613 15.468871,13.0867742 C15.468871,13.9504839 15.6851613,14.445 15.8603226,14.8417742 C15.9996774,15.161129 16.1008065,15.3909677 16.1008065,15.836129 L16.1008065,16.4608065 C16.1008065,16.8614516 16.4254839,17.1866129 16.8266129,17.1866129 C17.2277419,17.1866129 17.5524194,16.8614516 17.5524194,16.4608065 L17.5524194,15.836129 C17.5524194,15.0866129 17.351129,14.6283871 17.1890323,14.2587097 C17.0390323,13.9166129 16.9204839,13.646129 16.9204839,13.0867742 C16.9204839,12.273871 17.8683871,11.4904839 18.9667742,10.5841935 C20.6167742,9.2216129 22.8319355,7.38822581 23.1304839,4.16709677 C24.3827419,4.06209677 25.0432258,3.26564516 25.5459677,2.655 C26.0704839,2.01725806 26.3758065,1.68435484 27.0454839,1.68435484 C27.5598387,1.68435484 28.5333871,1.99064516 28.5333871,3.15 C28.5333871,3.86806452 28.0412903,4.3616129 27.0174194,5.32064516 C26.883871,5.44645161 26.7445161,5.5766129 26.6022581,5.71306452 C26.3114516,5.57709677 25.9920968,5.49774194 25.6548387,5.49774194 C24.9943548,5.49774194 24.3343548,5.7783871 23.8451613,6.26806452 C23.388871,6.7233871 23.1174194,7.31516129 23.0796774,7.93306452 C23.0404839,8.58435484 23.2620968,9.18629032 23.703871,9.62758065 C24.108871,10.0330645 24.66,10.256129 25.2546774,10.256129 C25.9156452,10.256129 26.5751613,9.97548387 27.0643548,9.48677419 C27.5201613,9.03048387 27.7920968,8.43870968 27.8293548,7.82080645 C27.8530645,7.43612903 27.7746774,7.07322581 27.6232258,6.74516129 C27.7558065,6.6183871 27.8859677,6.49741935 28.0108065,6.38032258 C29.07,5.38693548 29.985,4.52903226 29.985,3.15 C29.9840323,1.25564516 28.4695161,0.232741935 27.0445161,0.232741935 L27.0445161,0.232741935 Z M4.34564516,6.94935484 C4.62483871,6.94935484 4.91032258,7.07516129 5.12903226,7.29435484 C5.52822581,7.69306452 5.5916129,8.28 5.27129032,8.60129032 C5.10241935,8.76967742 4.89241935,8.80451613 4.74580645,8.80451613 C4.46709677,8.80451613 4.1816129,8.67870968 3.96241935,8.46048387 C3.75774194,8.25532258 3.63629032,7.99741935 3.62032258,7.73370968 C3.60629032,7.50290323 3.67790323,7.29725806 3.8216129,7.15258065 C3.99,6.98564516 4.2,6.94935484 4.34564516,6.94935484 L4.34564516,6.94935484 Z M26.0370968,8.46048387 C25.8183871,8.67870968 25.5329032,8.80451613 25.2537097,8.80451613 C25.1070968,8.80451613 24.8970968,8.76967742 24.7291935,8.60129032 C24.585,8.45758065 24.513871,8.25145161 24.5274194,8.02112903 C24.5433871,7.75741935 24.6653226,7.49951613 24.8704839,7.29435484 C25.0896774,7.07516129 25.3751613,6.94935484 25.653871,6.94935484 C25.8004839,6.94935484 26.01,6.98516129 26.1783871,7.15354839 C26.3220968,7.29725806 26.3937097,7.5033871 26.3796774,7.73370968 C26.3632258,7.99741935 26.2412903,8.25580645 26.0370968,8.46048387 L26.0370968,8.46048387 Z" id="Shape"></path>
            </g>
        </g>
    </g>
</svg>