<?xml version="1.0" encoding="UTF-8" standalone="no"?>
<svg width="22px" height="24px" viewBox="0 0 22 24" version="1.1" xmlns="http://www.w3.org/2000/svg" xmlns:xlink="http://www.w3.org/1999/xlink">
    <!-- Generator: Sketch 3.8.2 (29753) - http://www.bohemiancoding.com/sketch -->
    <title>hals-nasen-ohren@3x</title>
    <desc>Created with Sketch.</desc>
    <defs></defs>
    <g id="Page-1" stroke="none" stroke-width="1" fill="none" fill-rule="evenodd">
        <g id="hals-nasen-ohren" fill="#6D6E71">
            <g id="hals_nase_ohren">
                <g id="Ebene_1">
                    <path d="M12.4173913,0 C7.25217391,0 3.07826087,4.17391304 3.07826087,9.33913043 L3.07826087,9.80869565 L0.573913043,14.5043478 C0.469565217,14.7652174 0.469565217,15.026087 0.573913043,15.2869565 C0.730434783,15.5478261 0.991304348,15.6521739 1.25217391,15.6521739 L3.07826087,15.6521739 L3.07826087,18.5217391 C3.07826087,20.1913043 4.43478261,21.5478261 6.10434783,21.5478261 L9.49565217,21.5478261 L9.49565217,23.0608696 C9.49565217,23.4782609 9.86086957,23.8434783 10.2782609,23.8434783 C10.6956522,23.8434783 11.0608696,23.4782609 11.0608696,23.0608696 L11.0608696,20.7652174 C11.0608696,20.3478261 10.6956522,19.9826087 10.2782609,19.9826087 L6.10434783,19.9826087 C5.32173913,19.9826087 4.64347826,19.3565217 4.64347826,18.5217391 L4.64347826,14.8695652 C4.64347826,14.4521739 4.27826087,14.0869565 3.86086957,14.0869565 L2.55652174,14.0869565 L4.53913043,10.3826087 C4.59130435,10.2782609 4.64347826,10.1217391 4.64347826,10.0173913 L4.64347826,9.39130435 C4.64347826,5.11304348 8.13913043,1.6173913 12.4173913,1.6173913 C16.6956522,1.6173913 20.1913043,5.11304348 20.1913043,9.39130435 C20.1913043,11.426087 19.4086957,13.4086957 17.9478261,14.8173913 C17.7391304,14.973913 17.6347826,15.1826087 17.6347826,15.4434783 L17.6347826,23.0608696 C17.6347826,23.4782609 18,23.8434783 18.4173913,23.8434783 C18.8347826,23.8434783 19.2,23.4782609 19.2,23.0608696 L19.2,15.7043478 C20.8695652,13.9826087 21.7565217,11.6869565 21.7565217,9.28695652 C21.7043478,4.17391304 17.5304348,0 12.4173913,0 L12.4173913,0 Z M12.8869565,15.8086957 C11.3217391,14.8173913 8.97391304,14.973913 6.26086957,16.2782609 C5.89565217,16.4869565 5.68695652,16.9043478 5.89565217,17.3217391 C6.10434783,17.6869565 6.52173913,17.8956522 6.93913043,17.6869565 C9.07826087,16.6434783 10.9565217,16.4869565 12.0521739,17.1652174 C12.9391304,17.7391304 13.4086957,18.8869565 13.4086957,20.6608696 L13.4086957,22.9565217 C13.4086957,23.373913 13.773913,23.7391304 14.1913043,23.7391304 C14.6086957,23.7391304 14.973913,23.373913 14.973913,22.9565217 L14.973913,20.6608696 C14.9217391,18.3130435 14.2434783,16.6434783 12.8869565,15.8086957 L12.8869565,15.8086957 Z" id="Shape"></path>
                    <path d="M14.8695652,14.8695652 C14.5043478,14.8695652 14.1391304,14.6086957 14.0869565,14.1913043 C14.0347826,13.773913 14.2956522,13.3565217 14.7652174,13.3043478 C14.973913,13.2521739 16.5391304,12.9391304 16.5391304,10.9043478 C16.5391304,10.5913043 16.4869565,10.3304348 16.3304348,10.226087 C16.1217391,10.0173913 15.7043478,10.0173913 15.6,10.0173913 L15.5478261,10.0173913 C15.4956522,10.0173913 15.2869565,10.0695652 15.1826087,10.3826087 C15.0782609,10.8 14.6086957,11.0086957 14.1913043,10.9043478 C13.773913,10.8 13.5652174,10.3304348 13.6695652,9.91304348 C13.9826087,8.8173913 14.9217391,8.45217391 15.4434783,8.45217391 C15.6521739,8.45217391 16.6434783,8.4 17.373913,9.02608696 C17.7391304,9.33913043 18.1043478,9.91304348 18.1043478,10.9043478 C18.1043478,13.6695652 16.0695652,14.6608696 15.026087,14.8173913 C14.9217391,14.8695652 14.8695652,14.8695652 14.8695652,14.8695652 L14.8695652,14.8695652 Z" id="Shape"></path>
                </g>
            </g>
        </g>
    </g>
</svg>