<?xml version="1.0" encoding="UTF-8" standalone="no"?>
<svg width="24px" height="21px" viewBox="0 0 24 21" version="1.1" xmlns="http://www.w3.org/2000/svg" xmlns:xlink="http://www.w3.org/1999/xlink">
    <!-- Generator: Sketch 3.8.2 (29753) - http://www.bohemiancoding.com/sketch -->
    <title>herz@3x</title>
    <desc>Created with Sketch.</desc>
    <defs></defs>
    <g id="Page-1" stroke="none" stroke-width="1" fill="none" fill-rule="evenodd">
        <g id="herz" fill="#6D6E71">
            <g id="noun_185685" transform="translate(0.000000, 0.201335)">
                <path d="M12.0012,19.8372 C11.907,19.8372 11.8134,19.8234 11.721,19.7934 C11.2452,19.638 0.0456,15.8838 0.0456,7.5012 C0.0456,3.675 3.1584,0.5634 6.9834,0.5634 C8.898,0.5634 10.7016,1.35 12,2.709 C13.2984,1.3476 15.1032,0.5634 17.0172,0.5634 C20.8428,0.5634 23.9544,3.6762 23.9544,7.5012 C23.9544,15.8862 12.756,19.6386 12.279,19.7934 C12.1896,19.8228 12.0948,19.8372 12.0012,19.8372 L12.0012,19.8372 Z M6.984,2.3622 C4.1508,2.3622 1.8468,4.668 1.8468,7.5 C1.8468,13.9314 10.3368,17.3706 12.0012,17.9838 C13.6638,17.3712 22.1568,13.92 22.1568,7.5 C22.1568,4.6668 19.8516,2.3622 17.019,2.3622 C15.3036,2.3622 13.7064,3.2154 12.75,4.644 C12.414,5.142 11.589,5.142 11.2548,4.644 C10.296,3.2142 8.6988,2.3622 6.984,2.3622 L6.984,2.3622 Z" id="Shape"></path>
            </g>
        </g>
    </g>
</svg>