<?xml version="1.0" encoding="UTF-8" standalone="no"?>
<svg width="24px" height="22px" viewBox="0 0 24 22" version="1.1" xmlns="http://www.w3.org/2000/svg" xmlns:xlink="http://www.w3.org/1999/xlink">
    <!-- Generator: Sketch 3.8.2 (29753) - http://www.bohemiancoding.com/sketch -->
    <title>Kinder@3x</title>
    <desc>Created with Sketch.</desc>
    <defs></defs>
    <g id="Page-1" stroke="none" stroke-width="1" fill="none" fill-rule="evenodd">
        <g id="Kinder" fill="#6D6E71">
            <g id="noun_372932">
                <path d="M21.181,8.8795 C20.273,6.297 18.302,4.1615 15.6935,3.0925 C15.504,1.4935 14.1425,0.2395 12.4385,0.167 C10.459,0.0995 9.209,1.374 7.9955,2.6205 C7.4415,3.19 6.868,3.779 6.205,4.277 C4.604,5.4805 3.4425,7.079 2.81,8.8805 C1.354,9.096 0.2315,10.3495 0.2315,11.8645 C0.2315,13.3275 1.277,14.55 2.6585,14.8265 C3.842,18.8705 7.578,21.8345 12,21.8345 C16.421,21.8345 20.1565,18.8705 21.3405,14.8265 C22.723,14.55 23.7675,13.3275 23.7675,11.8645 C23.768,10.3475 22.641,9.0915 21.181,8.8795 L21.181,8.8795 Z M2.311,13.049 C1.9605,12.7715 1.732,12.347 1.732,11.8655 C1.732,11.3555 1.9885,10.91 2.376,10.636 C2.3035,11.116 2.2625,11.604 2.2625,12.099 C2.2625,12.42 2.2805,12.7365 2.311,13.049 L2.311,13.049 Z M12.0005,20.335 C7.4585,20.335 3.7625,16.6405 3.7625,12.0985 C3.762,9.4885 4.981,7.075 7.1065,5.4765 C7.8625,4.9085 8.477,4.2775 9.071,3.6665 C10.157,2.5515 11.02,1.6635 12.265,1.6635 C12.3015,1.6635 12.3385,1.664 12.3765,1.666 C13.426,1.71 14.217,2.4885 14.217,3.476 C14.217,3.494 14.217,3.512 14.2165,3.5295 C14.213,3.5605 14.211,3.591 14.211,3.6215 C14.137,4.551 13.3565,5.285 12.4085,5.285 C12.0785,5.285 11.761,5.0685 11.641,4.9155 C11.3855,4.59 10.9145,4.5305 10.5885,4.7865 C10.262,5.0415 10.204,5.513 10.4595,5.839 C10.8005,6.2755 11.515,6.785 12.4085,6.785 C13.821,6.785 15.0295,5.895 15.5035,4.6465 C18.3665,5.991 20.2375,8.8875 20.2375,12.0985 C20.237,16.6405 16.542,20.335 12.0005,20.335 L12.0005,20.335 Z M21.689,13.05 C21.7195,12.7365 21.737,12.42 21.737,12.099 C21.737,11.602 21.699,11.1105 21.625,10.6285 C22.0125,10.9045 22.268,11.355 22.268,11.8655 C22.268,12.3475 22.039,12.7715 21.689,13.05 L21.689,13.05 Z M10.6975,10.501 C10.405,10.209 9.9295,10.2085 9.637,10.5015 C9.0105,11.1285 7.917,11.1285 7.291,10.5015 C6.998,10.2085 6.5235,10.209 6.2305,10.501 C5.9375,10.794 5.937,11.2685 6.2295,11.5625 C6.826,12.159 7.6195,12.4885 8.464,12.4885 C9.3085,12.4885 10.1015,12.1595 10.6985,11.5625 C10.9905,11.2695 10.9905,10.794 10.6975,10.501 L10.6975,10.501 Z M16.7095,10.5015 C16.3965,10.815 15.98,10.988 15.5365,10.988 L15.5365,10.988 C15.093,10.988 14.677,10.815 14.364,10.502 C14.0715,10.208 13.5965,10.208 13.303,10.501 C13.01,10.7935 13.01,11.2685 13.3025,11.5615 C13.8985,12.159 14.6915,12.4885 15.5365,12.4885 L15.5365,12.4885 C16.3805,12.4885 17.174,12.1595 17.771,11.5625 C18.0635,11.2685 18.063,10.794 17.77,10.501 C17.477,10.209 17.0025,10.2085 16.7095,10.5015 L16.7095,10.5015 Z M13.143,16.326 C12.406,16.618 11.5935,16.618 10.857,16.326 C10.4715,16.1735 10.0355,16.362 9.8835,16.747 C9.731,17.1325 9.9195,17.5685 10.3045,17.7205 C10.8515,17.9375 11.4255,18.0455 12.0005,18.0455 C12.5755,18.0455 13.1495,17.937 13.6965,17.7205 C14.0815,17.568 14.2695,17.1325 14.1175,16.747 C13.964,16.3625 13.529,16.172 13.143,16.326 L13.143,16.326 Z" id="Shape"></path>
            </g>
        </g>
    </g>
</svg>