<?xml version="1.0" encoding="UTF-8" standalone="no"?>
<svg width="30px" height="21px" viewBox="0 0 30 21" version="1.1" xmlns="http://www.w3.org/2000/svg" xmlns:xlink="http://www.w3.org/1999/xlink">
    <!-- Generator: Sketch 3.8.2 (29753) - http://www.bohemiancoding.com/sketch -->
    <title>lunge@3x</title>
    <desc>Created with Sketch.</desc>
    <defs></defs>
    <g id="Page-1" stroke="none" stroke-width="1" fill="none" fill-rule="evenodd">
        <g id="lunge" fill="#6D6E71">
            <g id="noun_187697">
                <path d="M26.8471154,5.94288462 C24.9011538,2.61346154 22.5473077,0.703269231 20.3884615,0.703269231 C17.8678846,0.703269231 17.2903846,3.42634615 17.0976923,4.51557692 C16.4163462,4.45557692 15.8653846,4.0125 15.8653846,3.4875 L15.8653846,0.932307692 C15.8653846,0.454615385 15.4776923,0.0669230769 15,0.0669230769 C14.5211538,0.0669230769 14.1346154,0.454615385 14.1346154,0.932307692 L14.1346154,3.4875 C14.1346154,4.0125 13.5836538,4.45615385 12.9017308,4.51557692 C12.7090385,3.42461538 12.1321154,0.703269231 9.61153846,0.703269231 C7.45269231,0.703269231 5.09769231,2.61403846 3.15173077,5.94288462 C1.39615385,8.94692308 0.305769231,12.5867308 0.305769231,15.4401923 C0.305769231,16.7417308 0.305769231,20.7017308 4.03846154,20.7017308 C4.66615385,20.7017308 5.36019231,20.5898077 6.16269231,20.3578846 C8.47615385,19.6903846 13.2905769,18.3023077 13.2905769,13.3032692 L13.2905769,13.0655769 C13.2905769,10.4596154 13.2882692,8.13346154 13.1215385,6.23596154 C13.8565385,6.15692308 14.5130769,5.85057692 15,5.39826923 C15.4857692,5.85057692 16.1417308,6.15692308 16.8773077,6.23596154 C16.7105769,8.13346154 16.7082692,10.4596154 16.7094231,13.0655769 L16.7094231,13.3032692 C16.7094231,18.3005769 21.5238462,19.6892308 23.8367308,20.3578846 C24.6386538,20.5886538 25.3326923,20.7017308 25.9603846,20.7017308 L25.9603846,20.7017308 C27.3023077,20.7017308 28.3015385,20.1784615 28.9275,19.1463462 C29.4501923,18.2838462 29.6936538,17.1069231 29.6936538,15.4401923 C29.6925,12.5855769 28.6026923,8.94692308 26.8471154,5.94288462 L26.8471154,5.94288462 Z M11.5598077,13.3038462 C11.5598077,16.3707692 9.21057692,17.6780769 5.68211538,18.6957692 C5.04634615,18.8780769 4.49423077,18.9721154 4.03788462,18.9721154 C3.06865385,18.9721154 2.03538462,18.6992308 2.03538462,15.4413462 C2.03538462,9.97211538 6.42403846,2.43519231 9.60980769,2.43519231 C9.96115385,2.43519231 10.785,2.43519231 11.22,4.95115385 C11.5580769,6.91384615 11.5580769,9.76557692 11.5580769,13.0667308 L11.5580769,13.3038462 L11.5598077,13.3038462 L11.5598077,13.3038462 Z M27.4465385,18.2480769 C27.2423077,18.5844231 26.8892308,18.9709615 25.9603846,18.9709615 L25.9603846,18.9709615 C25.5040385,18.9709615 24.9507692,18.8780769 24.3161538,18.6946154 C20.7894231,17.6763462 18.4384615,16.3707692 18.4384615,13.3032692 L18.4384615,13.0655769 C18.4384615,9.76326923 18.4384615,6.91269231 18.7776923,4.95 C19.2126923,2.43403846 20.0359615,2.43403846 20.3867308,2.43403846 C23.5719231,2.43403846 27.9611538,9.97038462 27.9611538,15.4401923 C27.9617308,16.7394231 27.7892308,17.6838462 27.4465385,18.2480769 L27.4465385,18.2480769 Z" id="Shape"></path>
            </g>
        </g>
    </g>
</svg>