<?xml version="1.0" encoding="UTF-8" standalone="no"?>
<svg width="27px" height="22px" viewBox="0 0 27 22" version="1.1" xmlns="http://www.w3.org/2000/svg" xmlns:xlink="http://www.w3.org/1999/xlink">
    <!-- Generator: Sketch 3.8.2 (29753) - http://www.bohemiancoding.com/sketch -->
    <title>neurologie-nervensystem@3x</title>
    <desc>Created with Sketch.</desc>
    <defs></defs>
    <g id="Page-1" stroke="none" stroke-width="1" fill="none" fill-rule="evenodd">
        <g id="neurologie-nervensystem" fill="#6D6E71">
            <g id="noun_375829">
                <path d="M18.9455625,7.3355625 L15.3279844,7.3355625 L18.2785781,1.06607812 C18.3705469,0.86990625 18.3562031,0.64040625 18.2397656,0.457734375 C18.1233281,0.2750625 17.9225156,0.164109375 17.7056719,0.164109375 L9.7419375,0.164109375 C9.43017188,0.164109375 9.16523438,0.391078125 9.11714063,0.699046875 L7.42964063,11.4568594 C7.40095313,11.6399531 7.4536875,11.8255781 7.57392188,11.9660625 C7.69415625,12.1069688 7.86965625,12.1875469 8.05485938,12.1875469 L11.1054375,12.1875469 L9.95076563,21.0595781 C9.912375,21.353625 10.0836563,21.6350156 10.3625156,21.7362656 C10.4333906,21.762 10.506375,21.7742344 10.5785156,21.7742344 C10.7902969,21.7742344 10.9936406,21.6675 11.1126094,21.4810313 L19.4809219,8.30840625 C19.6045313,8.1135 19.6125469,7.86628125 19.5011719,7.66420313 C19.389375,7.46128125 19.17675,7.3355625 18.9455625,7.3355625 L18.9455625,7.3355625 Z M11.5737188,18.3933281 L12.4533281,11.6357344 C12.4765313,11.4551719 12.4212656,11.2733438 12.3010313,11.1362344 C12.1812188,10.9995469 12.0078281,10.9210781 11.8255781,10.9210781 L8.79398438,10.9210781 L10.2832031,1.42889063 L16.7083594,1.42889063 L13.7581875,7.698375 C13.6657969,7.89454688 13.6801406,8.12404688 13.7961563,8.30671875 C13.9121719,8.4898125 14.11425,8.60034375 14.3310938,8.60034375 L17.7942656,8.60034375 L11.5737188,18.3933281 L11.5737188,18.3933281 Z M4.829625,9.70270312 C4.829625,9.35339062 4.546125,9.06989062 4.1968125,9.06989062 L0.739546875,9.06989062 C0.390234375,9.06989062 0.106734375,9.35339062 0.106734375,9.70270312 C0.106734375,10.0520156 0.390234375,10.3355156 0.739546875,10.3355156 L4.1968125,10.3355156 C4.546125,10.3355156 4.829625,10.0520156 4.829625,9.70270312 L4.829625,9.70270312 Z M26.2604531,9.06989062 L22.8031875,9.06989062 C22.453875,9.06989062 22.170375,9.35339062 22.170375,9.70270312 C22.170375,10.0520156 22.453875,10.3355156 22.8031875,10.3355156 L26.2604531,10.3355156 C26.6097656,10.3355156 26.8932656,10.0520156 26.8932656,9.70270312 C26.8932656,9.35339062 26.6097656,9.06989062 26.2604531,9.06989062 L26.2604531,9.06989062 Z M21.5573906,5.68434375 C21.6649688,5.68434375 21.7738125,5.65734375 21.873375,5.59954687 L24.8674219,3.87070312 C25.1699063,3.69604687 25.2736875,3.3091875 25.0990313,3.00628125 C24.924375,2.70379687 24.5379375,2.59917187 24.2346094,2.77467187 L21.2405625,4.50351562 C20.9376563,4.67817187 20.833875,5.06503125 21.0089531,5.3679375 C21.1262344,5.57085937 21.3388594,5.68434375 21.5573906,5.68434375 L21.5573906,5.68434375 Z M5.126625,13.807125 L2.13257813,15.535125 C1.83009375,15.7097813 1.7263125,16.0966406 1.90096875,16.3995469 C2.01782813,16.6024687 2.23045313,16.7159531 2.44982813,16.7159531 C2.55698438,16.7159531 2.66582813,16.6889531 2.76539063,16.6311563 L5.7594375,14.9031562 C6.06234375,14.7285 6.166125,14.3416406 5.99146875,14.0387344 C5.8168125,13.7358281 5.42953125,13.6324688 5.126625,13.807125 L5.126625,13.807125 Z M2.133,3.87070312 L5.12704688,5.59954687 C5.22660938,5.65734375 5.33545313,5.68434375 5.44303125,5.68434375 C5.6615625,5.68434375 5.87376563,5.57085937 5.99146875,5.3679375 C6.16654688,5.06503125 6.06276563,4.67817187 5.75985938,4.50351562 L2.7658125,2.77467187 C2.46332813,2.59917187 2.07646875,2.70379687 1.90139063,3.00628125 C1.72673438,3.3091875 1.83051563,3.69604687 2.133,3.87070312 L2.133,3.87070312 Z M24.867,15.5347031 L21.8729531,13.8067031 C21.5704688,13.6324688 21.1831875,13.7354063 21.0081094,14.0383125 C20.8334531,14.3412188 20.9372344,14.7280781 21.2401406,14.9027344 L24.2341875,16.6307344 C24.33375,16.6885313 24.4425938,16.7155313 24.54975,16.7155313 C24.769125,16.7155313 24.9813281,16.6020469 25.0986094,16.399125 C25.2732656,16.0962188 25.1694844,15.7093594 24.867,15.5347031 L24.867,15.5347031 Z" id="Shape"></path>
            </g>
        </g>
    </g>
</svg>