<?xml version="1.0" encoding="UTF-8" standalone="no"?>
<svg width="20px" height="25px" viewBox="0 0 20 25" version="1.1" xmlns="http://www.w3.org/2000/svg" xmlns:xlink="http://www.w3.org/1999/xlink">
    <!-- Generator: Sketch 3.8.2 (29753) - http://www.bohemiancoding.com/sketch -->
    <title>onkologie@3x</title>
    <desc>Created with Sketch.</desc>
    <defs></defs>
    <g id="Page-1" stroke="none" stroke-width="1" fill="none" fill-rule="evenodd">
        <g id="onkologie" fill="#6D6E71">
            <g id="noun_185704" transform="translate(0.000000, 0.201335)">
                <path d="M18.69168,19.13712 C17.96304,17.08512 15.84528,15.03648 13.60272,12.86784 C13.3776,12.64992 13.1544,12.43008 12.93168,12.2112 C14.15136,10.31904 15.0024,8.45328 15.0024,6.56112 C15.0024,3.27552 12.4704,0.39408 9.59424,0.39408 C6.71856,0.39408 4.19664,3.27552 4.19664,6.56112 C4.19664,8.45328 5.05104,10.32 6.27168,12.21216 C6.04656,12.43104 5.82144,12.64944 5.59632,12.86736 C3.35424,15.036 1.23696,17.08368 0.50784,19.13664 C0.41232,19.4064 0.48528,19.70688 0.69408,19.90272 L4.43424,23.41008 C4.56912,23.5368 4.74576,23.60496 4.92672,23.60496 C4.98,23.60496 5.03424,23.59872 5.08704,23.58672 C5.32032,23.53344 5.51232,23.36736 5.59776,23.14368 C6.42384,20.99904 7.99776,18.85008 9.59904,16.75632 C11.20032,18.84912 12.77376,20.99904 13.59936,23.14368 C13.68576,23.36736 13.87776,23.53344 14.11008,23.58672 C14.16336,23.59872 14.21808,23.60496 14.2704,23.60496 C14.45136,23.60496 14.62848,23.53632 14.76336,23.41008 L18.50304,19.90272 C18.71424,19.70736 18.78768,19.4064 18.69168,19.13712 L18.69168,19.13712 Z M9.5952,1.83456 C10.93152,1.83456 12.19056,2.77152 12.91584,4.10112 C11.9088,3.5784 10.68576,3.25104 9.5952,3.25104 C8.58096,3.25104 7.30992,3.58656 6.2568,4.13568 C6.97968,2.78832 8.24784,1.83456 9.5952,1.83456 L9.5952,1.83456 Z M11.34864,5.00064 C11.20512,6.2016 10.54032,7.416 9.60288,8.63088 C8.66928,7.4208 8.00448,6.21024 7.85616,5.01408 C8.40288,4.8216 9.00192,4.69056 9.5952,4.69056 C10.20672,4.69056 10.80672,4.81488 11.34864,5.00064 L11.34864,5.00064 Z M5.63808,6.56112 C5.63808,6.36384 5.98032,6.01296 6.5136,5.66928 C6.80736,7.07952 7.6056,8.43792 8.66256,9.76032 C8.23968,10.2336 7.78608,10.70784 7.31808,11.1792 C6.31584,9.57744 5.63808,8.03616 5.63808,6.56112 L5.63808,6.56112 Z M8.97072,15.21072 C7.3704,17.29296 5.72112,19.4376 4.67136,21.65856 L2.04144,19.19232 C2.80608,17.56992 4.65168,15.78384 6.5976,13.90272 C9.31008,11.27808 12.09168,8.5728 12.68688,5.64624 C13.21824,5.9928 13.55232,6.34992 13.55232,6.56064 C13.55232,6.58224 13.55712,6.60288 13.55904,6.624 C13.52544,9.28416 11.3136,12.1632 8.97072,15.21072 L8.97072,15.21072 Z M14.5296,21.65808 C13.53936,19.56576 12.01968,17.54208 10.50864,15.57312 C11.06352,14.84832 11.60448,14.13264 12.10992,13.42272 C12.27408,13.58256 12.43824,13.74384 12.60288,13.9032 C14.54832,15.78432 16.39392,17.5704 17.15808,19.1928 L14.5296,21.65808 L14.5296,21.65808 Z" id="Shape"></path>
            </g>
        </g>
    </g>
</svg>