<?xml version="1.0" encoding="UTF-8" standalone="no"?>
<svg width="24px" height="15px" viewBox="0 0 24 15" version="1.1" xmlns="http://www.w3.org/2000/svg" xmlns:xlink="http://www.w3.org/1999/xlink">
    <!-- Generator: Sketch 3.8.2 (29753) - http://www.bohemiancoding.com/sketch -->
    <title>orthopaedie@3x</title>
    <desc>Created with Sketch.</desc>
    <defs></defs>
    <g id="Page-1" stroke="none" stroke-width="1" fill="none" fill-rule="evenodd">
        <g id="orthopaedie" fill="#6D6E71">
            <g id="noun_188217">
                <path d="M23.3621538,7.50969231 C22.9726154,5.52646154 22.5309231,3.27830769 22.8466154,0.792461538 C22.8950769,0.413076923 22.6264615,0.0664615385 22.2470769,0.018 C21.8667692,-0.0286153846 21.5215385,0.238153846 21.4726154,0.617538462 C21.1292308,3.32538462 21.6133846,5.79323077 22.0024615,7.77646154 C22.5341538,10.4838462 22.7552308,11.9335385 21.5312308,12.7204615 C20.1664615,13.5992308 18.2455385,13.2803077 16.5507692,12.9996923 C15.7726154,12.8709231 15.0383077,12.7490769 14.3953846,12.7490769 C13.5373846,12.7490769 12.8963077,12.8972308 12.276,13.0407692 C11.5712308,13.2041538 10.8429231,13.3726154 9.65353846,13.3726154 C8.81538462,13.3726154 8.10138462,13.2318462 7.41092308,13.0956923 C6.486,12.9133846 5.61276923,12.7403077 4.68646154,12.9816923 C3.48,13.2955385 2.52876923,13.2466154 2.00953846,12.8446154 C1.60384615,12.5312308 1.57246154,12.096 1.57246154,11.97 C1.57246154,11.5001538 1.71923077,11.1401538 2.02061538,10.8696923 C2.52276923,10.4192308 3.426,10.2401538 4.566,10.3624615 C5.86984615,10.5087692 7.22907692,9.73753846 8.54261538,8.99584615 C9.21692308,8.61507692 9.85430769,8.25553846 10.4492308,8.03215385 C11.148,7.77046154 11.6903077,7.66061538 12.1693846,7.56415385 C13.0093846,7.39476923 13.7344615,7.24846154 14.3921538,6.38446154 C15.2423077,5.26846154 14.8167692,1.68092308 14.6653846,0.607384615 C14.6123077,0.229384615 14.2652308,-0.0373846154 13.884,0.0184615385 C13.5055385,0.0715384615 13.2410769,0.421846154 13.2946154,0.800307692 C13.5936923,2.93261538 13.5923077,5.15030769 13.2909231,5.54492308 C12.9646154,5.97369231 12.696,6.04523077 11.8956923,6.20676923 C11.3926154,6.30830769 10.7663077,6.43476923 9.96369231,6.73569231 C9.26769231,6.99646154 8.55276923,7.39984615 7.86230769,7.78938462 C6.73892308,8.42353846 5.57815385,9.07753846 4.71553846,8.98569231 C3.156,8.81538462 1.90569231,9.11261538 1.09615385,9.83907692 C0.502153846,10.3721538 0.188307692,11.1087692 0.188307692,11.9695385 C0.188307692,12.7310769 0.552461538,13.4672308 1.16261538,13.9393846 C1.77553846,14.4133846 2.94461538,14.8643077 5.03538462,14.3215385 C5.65523077,14.1590769 6.312,14.2896923 7.14369231,14.4535385 C7.86461538,14.5956923 8.68107692,14.7563077 9.654,14.7563077 C11.0016923,14.7563077 11.8444615,14.5610769 12.588,14.3889231 C13.182,14.2513846 13.6947692,14.1327692 14.3953846,14.1327692 C14.9243077,14.1327692 15.6050769,14.2453846 16.3246154,14.3644615 C18.1698462,14.6695385 20.4669231,15.0507692 22.2793846,13.884 C24.3530769,12.5529231 23.8933846,10.2156923 23.3621538,7.50969231 L23.3621538,7.50969231 Z M17.6372308,10.5396923 C17.8158462,10.5687692 17.9852308,10.5826154 18.1458462,10.5826154 C19.224,10.5826154 19.8863077,9.96138462 20.1595385,9.318 C20.5670769,8.358 20.2624615,7.21430769 19.4349231,6.59861538 C19.1275385,6.37107692 18.6946154,6.43430769 18.4666154,6.74076923 C18.2376923,7.04769231 18.3018462,7.48107692 18.6083077,7.70953846 C18.9553846,7.968 19.0218462,8.45492308 18.8852308,8.77707692 C18.6996923,9.21369231 18.2252308,9.234 17.8629231,9.17353846 C17.4826154,9.10938462 17.1281538,9.36738462 17.0667692,9.744 C17.0044615,10.1210769 17.2596923,10.4773846 17.6372308,10.5396923 L17.6372308,10.5396923 Z" id="Shape"></path>
            </g>
        </g>
    </g>
</svg>