<?xml version="1.0" encoding="UTF-8" standalone="no"?>
<svg width="30px" height="19px" viewBox="0 0 30 19" version="1.1" xmlns="http://www.w3.org/2000/svg" xmlns:xlink="http://www.w3.org/1999/xlink">
    <!-- Generator: Sketch 3.8.2 (29753) - http://www.bohemiancoding.com/sketch -->
    <title>prostata-blase-niere@3x</title>
    <desc>Created with Sketch.</desc>
    <defs></defs>
    <g id="Page-1" stroke="none" stroke-width="1" fill="none" fill-rule="evenodd">
        <g id="prostata-blase-niere" fill="#6D6E71">
            <g id="noun_188214">
                <path d="M10.1968966,11.5422414 C9.80844828,11.7227586 9.6387931,12.1836207 9.81982759,12.5725862 C10.2098276,13.4151724 10.17,14.2784483 9.70655172,15.0036207 C9.19448276,15.8053448 8.24793103,16.2843103 7.17413793,16.2843103 C4.08724138,16.2843103 1.84655172,13.2206897 1.84655172,8.99948276 C1.84655172,4.7787931 4.08724138,1.71517241 7.17517241,1.71517241 C8.24741379,1.71517241 9.19396552,2.19413793 9.70655172,2.99586207 C10.17,3.72103448 10.2098276,4.58534483 9.81982759,5.42793103 C9.6387931,5.81689655 9.80896552,6.27827586 10.1968966,6.45827586 C10.5874138,6.63982759 11.0477586,6.46913793 11.2267241,6.08068966 C11.8391379,4.75965517 11.7610345,3.33103448 11.0136207,2.16051724 C10.215,0.910344828 8.78017241,0.163965517 7.17517241,0.163965517 C3.18827586,0.163965517 0.294827586,3.88034483 0.294827586,9 C0.294827586,14.1201724 3.18827586,17.8365517 7.17413793,17.8365517 C8.77965517,17.8365517 10.2155172,17.0901724 11.0136207,15.84 C11.7610345,14.67 11.8391379,13.2418966 11.2267241,11.9208621 C11.0472414,11.5318966 10.5853448,11.3617241 10.1968966,11.5422414 L10.1968966,11.5422414 Z M22.8243103,0.163448276 C21.2187931,0.163448276 19.7844828,0.909827586 18.9853448,2.16 C18.237931,3.33051724 18.1598276,4.75913793 18.7722414,6.08017241 C18.9522414,6.46810345 19.4125862,6.63775862 19.8025862,6.45775862 C20.1905172,6.27724138 20.3601724,5.81637931 20.1796552,5.42741379 C19.7896552,4.58482759 19.83,3.72103448 20.292931,2.99534483 C20.805,2.19362069 21.7515517,1.71465517 22.8248276,1.71465517 C25.9122414,1.71465517 28.1539655,4.77827586 28.1539655,8.99896552 C28.1539655,13.2201724 25.9132759,16.2837931 22.8258621,16.2837931 C21.752069,16.2837931 20.8055172,15.8048276 20.2934483,15.0031034 C19.8305172,14.277931 19.7901724,13.4146552 20.1801724,12.572069 C20.3612069,12.1831034 20.1910345,11.7217241 19.8031034,11.5417241 C19.4131034,11.3617241 18.9522414,11.5308621 18.7727586,11.9193103 C18.1603448,13.2403448 18.2384483,14.6684483 18.9858621,15.8384483 C19.7839655,17.0886207 21.2193103,17.835 22.8258621,17.835 C26.8122414,17.835 29.7056897,14.1186207 29.7056897,8.99844828 C29.7051724,3.87982759 26.8106897,0.163448276 22.8243103,0.163448276 L22.8243103,0.163448276 Z M12.5565517,8.28517241 C11.6017241,7.63655172 10.3287931,7.57655172 8.77448276,8.09172414 C8.42793103,7.62931034 8.09689655,6.93206897 8.28258621,6.06258621 C8.37206897,5.64362069 8.10465517,5.23189655 7.6862069,5.14241379 C7.26568966,5.05241379 6.855,5.32034483 6.76551724,5.73931034 C6.6212069,6.41586207 6.66,7.10068966 6.86793103,7.74982759 C6.63103448,7.63706897 6.40189655,7.51344828 6.1887931,7.36551724 C5.835,7.11982759 5.35293103,7.20724138 5.1087931,7.56 C4.86413793,7.91172414 4.95103448,8.39534483 5.30275862,8.63948276 C5.60637931,8.85 5.93327586,9.02275862 6.26948276,9.17844828 C5.89344828,9.51568966 5.53396552,9.93724138 5.19465517,10.452931 C4.95931034,10.8108621 5.05810345,11.2918966 5.41603448,11.5277586 C5.54741379,11.6141379 5.69586207,11.6555172 5.84224138,11.6555172 C6.09413793,11.6555172 6.34137931,11.532931 6.49086207,11.3063793 C6.69103448,11.0022414 6.8937931,10.7482759 7.09810345,10.5346552 C7.0112069,11.2427586 7.05,11.922931 7.14775862,12.2803448 C7.24241379,12.6253448 7.55482759,12.8513793 7.89568966,12.8513793 C7.96344828,12.8513793 8.03275862,12.8425862 8.10051724,12.8239655 C8.51431034,12.7106897 8.75793103,12.2839655 8.64465517,11.8706897 C8.49206897,11.3125862 8.69172414,9.97913793 8.95810345,9.67137931 C10.1782759,9.20793103 11.0974138,9.17068966 11.685,9.56896552 C12.3625862,10.0287931 12.7205172,11.16 12.7205172,12.842069 L12.7205172,17.6808621 C12.7205172,18.1091379 13.0681034,18.4567241 13.4963793,18.4567241 C13.9246552,18.4567241 14.2722414,18.1091379 14.2722414,17.6808621 L14.2722414,12.842069 C14.2727586,10.5905172 13.6955172,9.05741379 12.5565517,8.28517241 L12.5565517,8.28517241 Z M21.0382759,9.67086207 C21.3077586,9.98224138 21.5068966,11.3131034 21.3543103,11.8706897 C21.2410345,12.2839655 21.4846552,12.7106897 21.897931,12.8239655 C21.9667241,12.8425862 22.0355172,12.8513793 22.1027586,12.8513793 C22.4441379,12.8513793 22.7565517,12.6248276 22.8501724,12.2803448 C22.947931,11.922931 22.9877586,11.2427586 22.8998276,10.5346552 C23.1046552,10.7482759 23.3068966,11.0022414 23.5081034,11.3063793 C23.6565517,11.532931 23.9043103,11.6555172 24.1567241,11.6555172 C24.3031034,11.6555172 24.4505172,11.6141379 24.582931,11.5277586 C24.9403448,11.2918966 25.0396552,10.8108621 24.8043103,10.452931 C24.465,9.93724138 24.105,9.51568966 23.7284483,9.17844828 C24.0656897,9.02275862 24.392069,8.85 24.6951724,8.63948276 C25.047931,8.39534483 25.1348276,7.91172414 24.8901724,7.56 C24.6455172,7.20775862 24.162931,7.12034483 23.8101724,7.36551724 C23.597069,7.51344828 23.367931,7.63706897 23.1310345,7.74982759 C23.337931,7.10068966 23.3777586,6.41586207 23.232931,5.73931034 C23.142931,5.31982759 22.7317241,5.05189655 22.3127586,5.14241379 C21.8932759,5.23189655 21.6268966,5.64413793 21.7158621,6.06258621 C21.9015517,6.93206897 21.5705172,7.62931034 21.2239655,8.09172414 C19.6691379,7.57706897 18.3972414,7.63655172 17.4424138,8.28517241 C16.302931,9.05741379 15.7262069,10.5905172 15.7262069,12.8425862 L15.7262069,17.6813793 C15.7262069,18.1096552 16.0727586,18.4572414 16.502069,18.4572414 C16.9303448,18.4572414 17.277931,18.1096552 17.277931,17.6813793 L17.277931,12.8425862 C17.277931,11.1605172 17.6353448,10.0293103 18.3134483,9.56948276 C18.9015517,9.1712069 19.8186207,9.20844828 21.0382759,9.67086207 L21.0382759,9.67086207 Z" id="Shape"></path>
            </g>
        </g>
    </g>
</svg>