<?xml version="1.0" encoding="UTF-8" standalone="no"?>
<svg width="28px" height="24px" viewBox="0 0 28 24" version="1.1" xmlns="http://www.w3.org/2000/svg" xmlns:xlink="http://www.w3.org/1999/xlink">
    <!-- Generator: Sketch 3.8.2 (29753) - http://www.bohemiancoding.com/sketch -->
    <title>psychologie@3x</title>
    <desc>Created with Sketch.</desc>
    <defs></defs>
    <g id="Page-1" stroke="none" stroke-width="1" fill="none" fill-rule="evenodd">
        <g id="psychologie" fill="#6D6E71">
            <g id="Ebene_1">
                <g>
                    <path d="M26.4872727,7.33090909 C26.1381818,7.24363636 25.7890909,7.46181818 25.7018182,7.81090909 C23.9563636,15.2727273 21.4690909,18.0218182 20.2909091,18.0218182 L20.2909091,18.0218182 C13.3090909,17.8472727 8.59636364,18.1090909 8.20363636,18.1527273 C7.98545455,18.1527273 6.63272727,18.1527273 5.06181818,18.7636364 C5.06181818,18.4581818 4.84363636,18.1963636 4.53818182,18.1090909 C4.40727273,18.0654545 3.22909091,17.8472727 2.31272727,18.24 C2.18181818,17.9345455 2.05090909,17.28 2.13818182,16.9745455 C2.22545455,16.6254545 2.13818182,16.1890909 1.96363636,15.4472727 C1.87636364,14.9672727 1.65818182,13.9636364 1.74545455,13.6145455 L1.74545455,13.6145455 C2.4,13.6145455 3.01090909,15.0981818 3.22909091,15.9709091 C3.31636364,16.2763636 3.57818182,16.4945455 3.88363636,16.4509091 L8.16,16.2763636 C8.42181818,16.2763636 8.64,16.1018182 8.77090909,15.84 C8.77090909,15.84 9.51272727,13.8327273 12.1745455,14.1381818 L12.2618182,14.1381818 C12.5672727,14.3127273 12.8727273,14.5309091 13.2218182,14.8363636 C13.92,15.4036364 14.7490909,16.1454545 16.2763636,16.7563636 C16.9309091,17.0181818 17.5418182,17.1490909 18.1090909,17.1490909 C18.6763636,17.1490909 19.2,17.0181818 19.68,16.8 C21.2945455,16.0145455 21.8181818,14.1381818 21.8618182,14.0509091 C21.9490909,13.7018182 21.7309091,13.3527273 21.3818182,13.2654545 C21.0327273,13.1781818 20.6836364,13.3963636 20.5963636,13.7454545 C20.5963636,13.7454545 20.2036364,15.1418182 19.1127273,15.6654545 C18.4581818,15.9709091 17.7163636,15.9709091 16.8,15.5781818 C15.4472727,15.0545455 14.7490909,14.4436364 14.0945455,13.8763636 C13.5272727,13.3963636 13.0036364,12.96 12.2181818,12.7418182 C12.3054545,12.6981818 12.3927273,12.6545455 12.48,12.6109091 C13.2654545,12.3490909 14.7054545,12.3927273 17.2363636,13.9636364 C17.5418182,14.1381818 17.9345455,14.0509091 18.1527273,13.7454545 C18.3272727,13.44 18.24,13.0472727 17.9345455,12.8290909 C15.5345455,11.3454545 13.5709091,10.8218182 12.0436364,11.3454545 C10.8218182,11.7381818 10.2981818,12.6981818 10.2109091,12.96 C8.90181818,13.3527273 8.11636364,14.2254545 7.72363636,14.9672727 L4.36363636,15.0981818 C4.01454545,14.0509091 3.09818182,11.9563636 1.39636364,12.3054545 C1.09090909,12.3490909 0.829090909,12.5236364 0.654545455,12.7854545 C0.218181818,13.4836364 0.436363636,14.5745455 0.698181818,15.6654545 C0.785454545,16.0145455 0.872727273,16.4945455 0.872727273,16.6254545 C0.741818182,17.28 0.916363636,18.8072727 1.61454545,19.3309091 C1.74545455,19.5927273 1.96363636,19.6363636 2.18181818,19.6363636 C2.35636364,19.6363636 2.53090909,19.5927273 2.70545455,19.5054545 C2.96727273,19.3309091 3.44727273,19.3309091 3.79636364,19.3745455 C2.66181818,20.0727273 1.52727273,21.12 0.741818182,22.7345455 C0.567272727,23.04 0.741818182,23.4327273 1.04727273,23.6072727 C1.13454545,23.6509091 1.22181818,23.6945455 1.35272727,23.6945455 C1.61454545,23.6945455 1.83272727,23.5636364 1.96363636,23.3454545 C3.84,19.4618182 7.98545455,19.5054545 8.16,19.5054545 L8.20363636,19.5054545 C8.24727273,19.5054545 13.0036364,19.2436364 20.2036364,19.3745455 C21.9927273,19.4181818 23.6509091,17.5418182 25.2218182,13.6581818 C26.3127273,10.9527273 26.9236364,8.29090909 26.9672727,8.20363636 C27.0545455,7.76727273 26.8363636,7.41818182 26.4872727,7.33090909 L26.4872727,7.33090909 Z" id="Shape"></path>
                    <path d="M20.2472727,12.5672727 C19.7672727,12.5672727 19.2872727,12.4363636 18.8509091,12.1745455 C17.4109091,11.2145455 17.1054545,8.90181818 18.24,6.93818182 C18.8509091,5.84727273 19.68,5.14909091 20.64,4.93090909 C21.3818182,4.75636364 22.1236364,4.88727273 22.7781818,5.28 C24.3054545,6.28363636 24.6109091,8.42181818 23.5636364,10.3418182 C22.9090909,11.4763636 21.9490909,12.2618182 20.9018182,12.5236364 C20.7272727,12.5672727 20.4654545,12.5672727 20.2472727,12.5672727 L20.2472727,12.5672727 Z M21.2945455,6.15272727 C21.1636364,6.15272727 21.0763636,6.15272727 20.9454545,6.19636364 C20.3345455,6.32727273 19.8109091,6.85090909 19.3745455,7.59272727 C18.6327273,8.94545455 18.72,10.56 19.5490909,11.1272727 C19.8981818,11.3454545 20.3345455,11.3454545 20.5963636,11.2581818 C21.2945455,11.0836364 21.9490909,10.5163636 22.4290909,9.68727273 L22.4290909,9.68727273 C23.1272727,8.42181818 22.9963636,6.98181818 22.0363636,6.37090909 C21.8181818,6.19636364 21.6,6.15272727 21.2945455,6.15272727 L21.2945455,6.15272727 Z" id="Shape"></path>
                    <path d="M15.4909091,9.68727273 L15.36,9.68727273 L12.3490909,8.94545455 C10.6909091,9.86181818 8.90181818,9.77454545 7.76727273,8.64 C6.24,7.11272727 6.41454545,4.10181818 8.20363636,2.00727273 C9.20727273,0.829090909 10.56,0.0872727273 11.9127273,0.0436363636 C12.8727273,-1.85962357e-15 13.7890909,0.349090909 14.4436364,1.00363636 C15.7090909,2.26909091 15.84,4.45090909 14.8363636,6.41454545 L16.1454545,8.72727273 C16.2763636,8.94545455 16.2327273,9.25090909 16.1018182,9.42545455 C15.8836364,9.6 15.6654545,9.68727273 15.4909091,9.68727273 L15.4909091,9.68727273 Z M12,1.35272727 L11.9127273,1.35272727 C10.9527273,1.39636364 9.94909091,1.96363636 9.16363636,2.88 C7.81090909,4.45090909 7.59272727,6.67636364 8.64,7.72363636 C9.38181818,8.46545455 10.6472727,8.46545455 11.8254545,7.72363636 C11.9563636,7.63636364 12.1745455,7.59272727 12.3490909,7.63636364 L14.1818182,8.07272727 L13.44,6.72 C13.3090909,6.50181818 13.3090909,6.28363636 13.44,6.06545455 C14.3563636,4.53818182 14.3563636,2.79272727 13.44,1.92 C12.96,1.44 12.4363636,1.35272727 12,1.35272727 L12,1.35272727 Z" id="Shape"></path>
                </g>
            </g>
        </g>
    </g>
</svg>