<?xml version="1.0" encoding="UTF-8" standalone="no"?>
<svg width="28px" height="24px" viewBox="0 0 28 24" version="1.1" xmlns="http://www.w3.org/2000/svg" xmlns:xlink="http://www.w3.org/1999/xlink">
    <!-- Generator: Sketch 3.8.2 (29753) - http://www.bohemiancoding.com/sketch -->
    <title>psychiatrie@3x</title>
    <desc>Created with Sketch.</desc>
    <defs></defs>
    <g id="Page-1" stroke="none" stroke-width="1" fill="none" fill-rule="evenodd">
        <g id="psychiatrie" fill="#6D6E71">
            <g id="noun_375830">
                <path d="M17.3775652,0.0954782609 C12.2353043,0.0954782609 8.05147826,4.27930435 8.05147826,9.42156522 L8.05147826,9.87547826 L5.53565217,14.5742609 C5.40573913,14.8168696 5.41304348,15.1095652 5.55391304,15.345913 C5.69530435,15.5817391 5.95043478,15.7262609 6.2253913,15.7262609 L8.05147826,15.7262609 L8.05147826,18.6151304 C8.05147826,20.2695652 9.39756522,21.6151304 11.0514783,21.6151304 L14.4427826,21.6151304 L14.4427826,23.1224348 C14.4427826,23.5544348 14.7933913,23.9050435 15.2253913,23.9050435 C15.6573913,23.9050435 16.008,23.5544348 16.008,23.1224348 L16.008,20.8325217 C16.008,20.4005217 15.6573913,20.049913 15.2253913,20.049913 L11.0514783,20.049913 C10.26,20.049913 9.61669565,19.4066087 9.61669565,18.6151304 L9.61669565,14.9436522 C9.61669565,14.5116522 9.26608696,14.1610435 8.83408696,14.1610435 L7.53234783,14.1610435 L9.52382609,10.4410435 C9.58486957,10.3273043 9.61669565,10.2005217 9.61669565,10.0716522 L9.61669565,9.42156522 C9.61669565,5.14226087 13.0982609,1.66069565 17.3775652,1.66069565 C21.6568696,1.66069565 25.1384348,5.14226087 25.1384348,9.42156522 C25.1384348,11.4808696 24.3417391,13.4128696 22.8923478,14.8732174 C22.704,15.0177391 22.5855652,15.2452174 22.5855652,15.4946087 L22.5855652,23.0984348 C22.5855652,23.5304348 22.9361739,23.8810435 23.3681739,23.8810435 C23.8001739,23.8810435 24.1507826,23.5304348 24.1507826,23.0984348 L24.1507826,15.8238261 C25.7994783,14.0874783 26.7036522,11.8267826 26.7036522,9.42156522 C26.7036522,4.27878261 22.5198261,0.0954782609 17.3775652,0.0954782609 L17.3775652,0.0954782609 Z M11.5789565,10.629913 C11.5789565,11.2533913 12.0845217,11.7589565 12.708,11.7589565 C13.3314783,11.7589565 13.8370435,11.2533913 13.8370435,10.629913 C13.8370435,10.0064348 13.3314783,9.50086957 12.708,9.50086957 C12.0845217,9.50086957 11.5789565,10.0064348 11.5789565,10.629913 L11.5789565,10.629913 Z M6.58121739,20.049913 L6.03547826,20.049913 C5.24452174,20.049913 4.60069565,19.4066087 4.60069565,18.6151304 L4.60069565,14.9436522 C4.60069565,14.5116522 4.25008696,14.1610435 3.81808696,14.1610435 L2.51634783,14.1610435 L4.50782609,10.4410435 C4.56886957,10.3273043 4.60069565,10.2005217 4.60069565,10.0716522 L4.60069565,9.42156522 C4.60069565,6.11113043 6.70173913,3.16226087 9.82852174,2.08382609 C10.2370435,1.94243478 10.454087,1.4973913 10.3137391,1.08886957 C10.1723478,0.680869565 9.72730435,0.463826087 9.31826087,0.604173913 C5.56121739,1.90017391 3.036,5.44382609 3.036,9.42156522 L3.036,9.87547826 L0.520173913,14.5742609 C0.39026087,14.8168696 0.397565217,15.1095652 0.538434783,15.345913 C0.679826087,15.5817391 0.934956522,15.7262609 1.20991304,15.7262609 L3.036,15.7262609 L3.036,18.6151304 C3.036,20.2695652 4.38208696,21.6151304 6.036,21.6151304 L6.58173913,21.6151304 C7.01426087,21.6151304 7.36434783,21.2645217 7.36434783,20.8325217 C7.36434783,20.4005217 7.01373913,20.049913 6.58121739,20.049913 L6.58121739,20.049913 Z" id="Shape"></path>
            </g>
        </g>
    </g>
</svg>