<?xml version="1.0" encoding="UTF-8" standalone="no"?>
<svg width="12px" height="24px" viewBox="0 0 12 24" version="1.1" xmlns="http://www.w3.org/2000/svg" xmlns:xlink="http://www.w3.org/1999/xlink">
    <!-- Generator: Sketch 3.8.2 (29753) - http://www.bohemiancoding.com/sketch -->
    <title>rheuma-gelenke@3x</title>
    <desc>Created with Sketch.</desc>
    <defs></defs>
    <g id="Page-1" stroke="none" stroke-width="1" fill="none" fill-rule="evenodd">
        <g id="rheuma-gelenke" fill="#6D6E71">
            <g id="noun_188221">
                <path d="M10.6568571,12.6852857 C10.0268571,12.4028571 9.53057143,12.7165714 9.20185714,12.9244286 C8.931,13.0954286 8.697,13.2437143 8.31814286,13.2437143 C7.69157143,13.2437143 7.49528571,13.0838571 7.24628571,12.8815714 C6.98957143,12.6732857 6.63814286,12.3878571 6.00042857,12.3878571 C5.36228571,12.3878571 5.01085714,12.6732857 4.75457143,12.8815714 C4.50557143,13.0838571 4.30928571,13.2437143 3.68185714,13.2437143 C3.30342857,13.2437143 3.06942857,13.0954286 2.79857143,12.9244286 C2.46942857,12.717 1.974,12.4028571 1.34314286,12.6852857 C0.939428571,12.8674286 0.665142857,13.2385714 0.570428571,13.7314286 C0.390428571,14.673 0.880714286,16.0967143 1.66285714,16.9037143 C1.75971429,17.0031429 1.85442857,17.0965714 1.94657143,17.187 C2.41885714,17.6494286 2.61042857,17.8568571 2.61042857,18.3544286 L2.61042857,23.3502857 C2.61042857,23.7051429 2.89842857,23.9931429 3.25328571,23.9931429 C3.60857143,23.9931429 3.89614286,23.7051429 3.89614286,23.3502857 L3.89614286,18.3544286 C3.89614286,17.2967143 3.33857143,16.7507143 2.84657143,16.2685714 C2.76257143,16.1862857 2.67557143,16.101 2.58728571,16.0097143 C1.94014286,15.3424286 1.67957143,14.0644286 1.83814286,13.8578571 C1.88571429,13.8681429 2.01642857,13.9512857 2.112,14.0112857 C2.43857143,14.2174286 2.93185714,14.5294286 3.68228571,14.5294286 C4.76614286,14.5294286 5.24742857,14.1385714 5.56585714,13.8792857 C5.77114286,13.7125714 5.826,13.6735714 6.00128571,13.6735714 C6.17657143,13.6735714 6.23142857,13.713 6.43671429,13.8792857 C6.75471429,14.1381429 7.236,14.5294286 8.31942857,14.5294286 C9.07114286,14.5294286 9.564,14.2174286 9.89057143,14.0112857 C9.98614286,13.9508571 10.1164286,13.8681429 10.1271429,13.8548571 C10.3234286,14.0644286 10.0628571,15.342 9.41528571,16.0101429 C9.327,16.1018571 9.23957143,16.1867143 9.156,16.269 C8.664,16.7511429 8.10557143,17.2971429 8.10557143,18.3544286 L8.10557143,23.3502857 C8.10557143,23.7051429 8.39357143,23.9931429 8.74842857,23.9931429 C9.10371429,23.9931429 9.39128571,23.7051429 9.39128571,23.3502857 L9.39128571,18.3544286 C9.39128571,17.8577143 9.58285714,17.6498571 10.0551429,17.1878571 C10.1477143,17.0974286 10.2432857,17.0035714 10.3397143,16.9041429 C11.1227143,16.095 11.613,14.6717143 11.4321429,13.7305714 C11.3357143,13.2381429 11.0614286,12.8665714 10.6568571,12.6852857 L10.6568571,12.6852857 Z M3.68185714,12.1542857 C4.36757143,12.1542857 4.836,11.874 5.21271429,11.6485714 C5.53585714,11.4552857 5.73171429,11.346 6.00042857,11.346 C6.26871429,11.346 6.465,11.4552857 6.78814286,11.649 C7.16485714,11.874 7.63371429,12.1542857 8.31814286,12.1542857 C10.131,12.1542857 11.6061429,10.68 11.6061429,8.86714286 C11.6061429,6.96214286 10.6885714,6.14571429 10.0187143,5.55 C9.56228571,5.14371429 9.38957143,4.96242857 9.38957143,4.66542857 L9.38957143,0.649714286 C9.38957143,0.294857143 9.102,0.00685714286 8.74671429,0.00685714286 C8.39185714,0.00685714286 8.10385714,0.294857143 8.10385714,0.649714286 L8.10385714,4.66542857 C8.10385714,5.56757143 8.667,6.06857143 9.16414286,6.51085714 C9.759,7.03971429 10.3204286,7.53942857 10.3204286,8.86757143 C10.3204286,9.97114286 9.42214286,10.869 8.31814286,10.869 C7.98814286,10.869 7.76142857,10.7335714 7.44814286,10.5458571 C7.08685714,10.3298571 6.63642857,10.0607143 6.00042857,10.0607143 C5.364,10.0607143 4.914,10.3294286 4.55271429,10.5458571 C4.23942857,10.7335714 4.01228571,10.869 3.68185714,10.869 C2.57785714,10.869 1.67957143,9.97114286 1.67957143,8.86757143 C1.67957143,7.53942857 2.24142857,7.03971429 2.83628571,6.51085714 C3.333,6.069 3.89614286,5.568 3.89614286,4.66542857 L3.89614286,0.649714286 C3.89614286,0.294857143 3.60857143,0.00685714286 3.25328571,0.00685714286 C2.89842857,0.00685714286 2.61042857,0.294857143 2.61042857,0.649714286 L2.61042857,4.66542857 C2.61042857,4.96242857 2.43814286,5.14371429 1.98171429,5.55 C1.31185714,6.14614286 0.393857143,6.96214286 0.393857143,8.86714286 C0.393857143,10.68 1.86857143,12.1542857 3.68185714,12.1542857 L3.68185714,12.1542857 Z M6.74057143,18.4954286 C6.38528571,18.4954286 6.09771429,18.7834286 6.09771429,19.1382857 L6.09771429,23.3502857 C6.09771429,23.7051429 6.38528571,23.9931429 6.74057143,23.9931429 C7.09542857,23.9931429 7.38342857,23.7051429 7.38342857,23.3502857 L7.38342857,19.1382857 C7.38342857,18.7834286 7.09542857,18.4954286 6.74057143,18.4954286 L6.74057143,18.4954286 Z" id="Shape"></path>
            </g>
        </g>
    </g>
</svg>