<?xml version="1.0" encoding="UTF-8" standalone="no"?>
<svg width="20px" height="24px" viewBox="0 0 20 24" version="1.1" xmlns="http://www.w3.org/2000/svg" xmlns:xlink="http://www.w3.org/1999/xlink">
    <!-- Generator: Sketch 3.8.2 (29753) - http://www.bohemiancoding.com/sketch -->
    <title>verdauungstrakt-leber@3x</title>
    <desc>Created with Sketch.</desc>
    <defs></defs>
    <g id="Page-1" stroke="none" stroke-width="1" fill="none" fill-rule="evenodd">
        <g id="verdauungstrakt-leber" fill="#6D6E71">
            <g id="noun_188215">
                <path d="M17.6358261,4.64608696 C16.2986087,3.41530435 13.7572174,2.27373913 9.20608696,3.67721739 C8.9013913,3.35008696 8.36765217,2.54608696 8.2653913,0.860869565 C8.23930435,0.429913043 7.86834783,0.0986086957 7.43686957,0.127304348 C7.00591304,0.152869565 6.67669565,0.523826087 6.70330435,0.955826087 C6.90208696,4.24226087 8.50278261,5.15530435 8.68486957,5.24921739 C8.87165217,5.34521739 9.08921739,5.3613913 9.28956522,5.29513043 C12.5253913,4.21826087 15.0453913,4.39043478 16.5761739,5.7986087 C17.9645217,7.07634783 18.5034783,9.3813913 18.0886957,12.1022609 C17.7005217,12.024 17.3436522,11.8158261 17.078087,11.4991304 C16.7806957,11.1433043 16.1754783,11.1433043 15.8775652,11.4991304 C15.5368696,11.9066087 15.0443478,12.1408696 14.5288696,12.1408696 C14.0123478,12.1408696 13.5203478,11.9066087 13.1801739,11.4991304 C13.0314783,11.3217391 12.8118261,11.2189565 12.5801739,11.2189565 L12.5796522,11.2189565 C12.3485217,11.2189565 12.1283478,11.3206957 11.9796522,11.4991304 C11.6384348,11.9066087 11.145913,12.1408696 10.629913,12.1408696 C10.113913,12.1408696 9.62243478,11.9066087 9.28121739,11.4991304 C8.98382609,11.1433043 8.3786087,11.1433043 8.08069565,11.4991304 C7.79321739,11.8424348 7.39773913,12.0526957 6.972,12.1137391 C6.57234783,10.574087 6.36417391,8.9373913 7.45304348,7.50365217 C7.59130435,7.32208696 7.64086957,7.08782609 7.59286957,6.86452174 C7.54486957,6.64121739 7.40034783,6.44869565 7.19947826,6.34069565 C7.12017391,6.29686957 5.25704348,5.26069565 4.89808696,2.77721739 C4.83652174,2.35043478 4.43947826,2.05252174 4.01217391,2.1146087 C3.58434783,2.17669565 3.28747826,2.57321739 3.34904348,3.00104348 C3.672,5.23773913 4.94347826,6.58695652 5.75947826,7.24121739 C4.55217391,9.42626087 5.23252174,11.772 5.74278261,13.5297391 C6.0386087,14.5507826 6.3453913,15.6062609 6.0693913,16.0314783 C5.88573913,16.3137391 5.35304348,16.4410435 4.93773913,16.4973913 C1.9946087,16.8996522 0.400695652,19.4128696 0.0469565217,21.0036522 C-0.0469565217,21.4257391 0.219130435,21.8431304 0.64173913,21.9370435 C0.698608696,21.950087 0.756,21.9563478 0.812347826,21.9563478 C1.17130435,21.9563478 1.49426087,21.7074783 1.57565217,21.3427826 C1.82452174,20.2236522 3.0146087,18.3406957 5.15008696,18.0485217 C6.24,17.8998261 6.96991304,17.5184348 7.38208696,16.8850435 C7.96434783,15.9892174 7.74104348,14.8513043 7.39930435,13.6293913 C7.86104348,13.5333913 8.29930435,13.3471304 8.68121739,13.0669565 C9.80921739,13.8923478 11.4521739,13.8913043 12.5801739,13.0669565 C13.706087,13.8913043 15.3506087,13.8913043 16.4786087,13.0669565 C16.8589565,13.3450435 17.294087,13.5307826 17.7516522,13.6273043 C17.018087,16.2255652 15.2212174,18.5123478 12.9798261,19.6434783 C10.8777391,20.7052174 8.46156522,20.7198261 5.99217391,19.6831304 C5.83304348,19.6158261 5.65513043,19.6038261 5.48817391,19.6486957 C5.39113043,19.6742609 3.11426087,20.3092174 2.61130435,22.9471304 C2.53043478,23.3718261 2.80956522,23.781913 3.23321739,23.8622609 C3.28330435,23.8716522 3.33182609,23.8763478 3.38086957,23.8763478 C3.74869565,23.8763478 4.07686957,23.6154783 4.14886957,23.2393043 C4.39147826,21.9667826 5.2653913,21.4293913 5.676,21.2431304 C8.48086957,22.3413913 11.244,22.2735652 13.6846957,21.0412174 C16.4238261,19.6586087 18.6041739,16.8286957 19.3758261,13.6544348 C20.3102609,9.8066087 19.6763478,6.52330435 17.6358261,4.64608696 L17.6358261,4.64608696 Z" id="Shape"></path>
            </g>
        </g>
    </g>
</svg>